<svg xmlns="http://www.w3.org/2000/svg" viewBox="0 0 331.08 201.28"><defs><style>.cls-1{fill:#fff;}.cls-2{fill:#f1ab4e;}</style></defs><g id="레이어_2" data-name="레이어 2"><g id="레이어_1-2" data-name="레이어 1"><path class="cls-1" d="M1,.6h9.37C16.7.6,20.41,4.13,20.41,9.52s-3.71,9-10,9H6.44V25H1Zm9.13,13.07c3,0,4.85-1.43,4.85-4.15s-1.83-4.1-4.85-4.1H6.44v8.25Z"/><path class="cls-1" d="M21.55.6H27V14.18c0,3.89,2.16,6.5,5.72,6.5s5.71-2.61,5.71-6.5V.6h5.45V14.18c0,6.92-4.46,11.4-11.16,11.4S21.55,21.1,21.55,14.18Z"/><path class="cls-1" d="M46.38.6H57c5.42,0,8.47,2.81,8.47,7.27a4.83,4.83,0,0,1-2.84,4.34,5.8,5.8,0,0,1,4,5.38c0,4.52-3.23,7.4-8.71,7.4H46.38Zm10.36,9.87c2.06,0,3.26-.89,3.26-2.6s-1.2-2.63-3.26-2.63H51.83v5.23Zm.89,9.88c2.16,0,3.5-1,3.5-2.76s-1.34-2.75-3.5-2.75h-5.8v5.51Z"/><path class="cls-1" d="M73.73.6V20.17H85.91V25H68.28V.6Z"/><path class="cls-1" d="M92.61.6V25H87.17V.6Z"/><path class="cls-1" d="M114.69,8h-5.62c-.33-2.13-1.92-3.41-4.52-3.41s-4,1-4,2.48c0,1.83,1.88,2.46,6.64,3.44,5.63,1.17,7.54,3.95,7.54,7.6,0,4.67-4.4,7.51-9.84,7.51-6,0-10.41-3.26-10.65-8.46h5.59c.3,2.33,2.34,3.89,5.45,3.89,2.21,0,3.86-1.11,3.86-2.7,0-1.94-1.65-2.72-6-3.53C97.91,13.79,95,11.61,95,7c0-4.4,4.37-7,9.88-7S114.42,3.32,114.69,8Z"/><path class="cls-1" d="M138.15.6V25h-5.44V15.08H121.93V25h-5.44V.6h5.44v9.66h10.78V.6Z"/><path class="cls-1" d="M141,.6H159.1V5.33H146.41v5h11.64V15H146.41v5.24h13V25H141Z"/><path class="cls-1" d="M176,25,171.3,17.3H167V25h-5.45V.6h9.81c6.2,0,9.82,3.29,9.82,8.35a7.6,7.6,0,0,1-4.46,7.27L182.35,25ZM167,12.48h4.12c2.88,0,4.61-1.23,4.61-3.53S174,5.42,171.09,5.42H167Z"/><path class="cls-1" d="M190.24.6h4.55L207,15.26V.3h5.45V24.69h-4.55L195.69,10V25h-5.45Z"/><path class="cls-1" d="M215.23.6h18.13V5.33H220.67v5h11.64V15H220.67v5.24h13V25h-18.4Z"/><path class="cls-1" d="M267.86.6l-7,24.39h-5.51L251,9.7,246.59,25h-5.51L234.05.6h5.83l4.19,16L248.26.6h5.66l4.16,15.89L262.3.6Z"/><path class="cls-1" d="M278.24,11v4.49H266.78V11Z"/><path class="cls-1" d="M280.25.6h10.59c5.42,0,8.47,2.81,8.47,7.27a4.85,4.85,0,0,1-2.84,4.34,5.8,5.8,0,0,1,4,5.38c0,4.52-3.24,7.4-8.71,7.4H280.25Zm10.35,9.87c2.07,0,3.26-.89,3.26-2.6s-1.19-2.63-3.26-2.63h-4.91v5.23Zm.9,9.88c2.15,0,3.5-1,3.5-2.76s-1.35-2.75-3.5-2.75h-5.81v5.51Z"/><path class="cls-1" d="M307.6.6V25h-5.45V.6Z"/><path class="cls-1" d="M310.41.6h18.13V5.33H315.85v5h11.64V15H315.85v5.24h13V25h-18.4Z"/><path class="cls-1" d="M1,73H5.54L17.72,87.69v-15h5.44V97.12H18.62L6.44,82.45v15H1Z"/><path class="cls-1" d="M26,73H44.11v4.73H31.42v5H43.06v4.73H31.42v5.24h13v4.72H26Z"/><path class="cls-1" d="M46.53,73H64.67v4.73H52v5H63.62v4.73H52v5.24h13v4.72H46.53Z"/><path class="cls-1" d="M67.09,73h9.45c8.08,0,13.08,5,13.08,12.21s-5,12.17-13.08,12.17H67.09ZM76.63,92.6c4.67,0,7.54-2.67,7.54-7.36s-2.87-7.39-7.54-7.39h-4.1V92.6Z"/><path class="cls-1" d="M113.2,92.69h-9.46L102,97.41H96.41L105.87,73h5.65L121,97.41H114.9ZM111.52,88l-3-8.5-3,8.5Z"/><path class="cls-1" d="M150.75,73l-7,24.38h-5.51l-4.37-15.29-4.37,15.29H124l-7-24.38h5.83L127,89l4.19-16h5.66L141,88.92,145.18,73Z"/><path class="cls-1" d="M170.26,80.39h-5.63c-.33-2.13-1.91-3.41-4.52-3.41s-4,1-4,2.48c0,1.83,1.89,2.46,6.65,3.44,5.62,1.17,7.54,3.95,7.54,7.6,0,4.67-4.4,7.51-9.85,7.51-6,0-10.41-3.26-10.65-8.47h5.6c.3,2.34,2.33,3.9,5.44,3.9,2.22,0,3.86-1.11,3.86-2.7,0-1.94-1.64-2.72-6-3.53-5.3-1-8.17-3.17-8.17-7.75,0-4.4,4.37-7,9.87-7S170,75.75,170.26,80.39Z"/><path class="cls-1" d="M171,85.21c0-7.39,5.59-12.81,13.16-12.81s13.17,5.42,13.17,12.81S191.71,98,184.14,98,171,92.6,171,85.21Zm20.88,0a7.72,7.72,0,1,0-7.72,7.9A7.56,7.56,0,0,0,191.86,85.21Z"/><path class="cls-1" d="M199,73h4.34l8.41,13.64L220.2,73h4.33V97.41h-5.44V84l-5.66,9.37h-3.29L204.49,84V97.41H199Z"/><path class="cls-1" d="M227.35,73h18.13v4.73H232.79v5h11.64v4.73H232.79v5.24h13v4.72h-18.4Z"/><path class="cls-1" d="M258.44,89.31a3.9,3.9,0,0,0,4.12,3.8c2.7,0,4.31-1.89,4.31-4.7V73h5.45V88.41c0,5.83-3.89,9.6-9.76,9.6s-9.51-3.86-9.57-8.7Z"/><path class="cls-1" d="M273.69,85.21c0-7.39,5.6-12.81,13.17-12.81S300,77.82,300,85.21,294.43,98,286.86,98,273.69,92.6,273.69,85.21Zm20.89,0a7.72,7.72,0,1,0-7.72,7.9A7.56,7.56,0,0,0,294.58,85.21Z"/><path class="cls-1" d="M301.76,73h10.59c5.42,0,8.47,2.81,8.47,7.27A4.86,4.86,0,0,1,318,84.64,5.8,5.8,0,0,1,322,90c0,4.52-3.23,7.39-8.71,7.39H301.76Zm10.35,9.87c2.07,0,3.27-.9,3.27-2.6s-1.2-2.63-3.27-2.63h-4.9V82.9Zm.9,9.88c2.16,0,3.5-1,3.5-2.76s-1.34-2.75-3.5-2.75h-5.8v5.51Z"/><path class="cls-1" d="M328.09,89.34h-3.71L323,73h6.46Zm1.32,5.35a3.18,3.18,0,0,1-6.35,0,3.18,3.18,0,0,1,6.35,0Z"/><path class="cls-1" d="M8.08,159.55c-1.76,1.35-2.72,2.24-2.72,3.68s1.08,2.42,3,2.42a2.87,2.87,0,0,0,3.08-2.93h5.21c0,4.31-3.41,7.54-8.26,7.54-5.17,0-8.11-3-8.11-7a6.75,6.75,0,0,1,3-5.48c2.18-1.7,2.87-2.78,2.87-4.45h4.94C11.08,156.26,10.27,157.9,8.08,159.55ZM5.27,147.94a3.06,3.06,0,0,1,3.17-3.14,3.16,3.16,0,1,1,0,6.31A3.08,3.08,0,0,1,5.27,147.94Z"/><path class="cls-1" d="M18.35,145.46h5.44V159c0,3.89,2.16,6.49,5.72,6.49s5.71-2.6,5.71-6.49V145.46h5.45V159c0,6.91-4.46,11.4-11.16,11.4S18.35,166,18.35,159Z"/><path class="cls-1" d="M82.14,145.46l-7,24.38H69.6l-4.37-15.29-4.37,15.29h-5.5l-7-24.38h5.83l4.19,15.95,4.19-15.95H68.2l4.15,15.89,4.22-15.89Z"/><path class="cls-1" d="M94.89,165.12H85.43l-1.71,4.72H78.1l9.45-24.38h5.66l9.46,24.38H96.59Zm-1.68-4.73-3-8.5-3,8.5Z"/><path class="cls-1" d="M103.62,145.46h4.55l12.18,14.66v-15h5.44v24.38h-4.54l-12.18-14.66v15h-5.45Z"/><path class="cls-1" d="M128.61,145.46h4.54l12.18,14.66v-15h5.45v24.38h-4.55l-12.18-14.66v15h-5.44Z"/><path class="cls-1" d="M168.52,165.12h-9.45l-1.71,4.72h-5.62l9.45-24.38h5.66l9.45,24.38h-6.07Zm-1.67-4.73-3.06-8.5-3,8.5Z"/><path class="cls-1" d="M205.8,145.46v24.38h-5.44v-9.9H189.59v9.9h-5.45V145.46h5.45v9.66h10.77v-9.66Z"/><path class="cls-1" d="M214.06,145.46v24.38h-5.45V145.46Z"/><path class="cls-1" d="M231.39,169.84l-4.73-7.69h-4.34v7.69h-5.45V145.46h9.82c6.19,0,9.81,3.29,9.81,8.35a7.58,7.58,0,0,1-4.46,7.27l5.66,8.76Zm-9.07-12.5h4.13c2.87,0,4.61-1.23,4.61-3.53s-1.74-3.54-4.61-3.54h-4.13Z"/><path class="cls-1" d="M238.72,145.46h18.13v4.72H244.16v5H255.8v4.73H244.16v5.24h13v4.72h-18.4Z"/><path class="cls-1" d="M266.15,145.46h4.34l8.41,13.64,8.41-13.64h4.34v24.38H286.2V156.47l-5.65,9.36h-3.29l-5.66-9.36v13.37h-5.45Z"/><path class="cls-1" d="M294.46,145.46h18.13v4.72H299.91v5h11.64v4.73H299.91v5.24h12.95v4.72h-18.4Z"/><path class="cls-1" d="M322.8,155.51c1.76-1.35,2.72-2.24,2.72-3.68s-1.08-2.42-3-2.42a2.88,2.88,0,0,0-3.09,2.93h-5.2c0-4.31,3.41-7.54,8.26-7.54,5.17,0,8.11,3,8.11,7a6.75,6.75,0,0,1-3,5.48c-2.18,1.7-2.87,2.78-2.87,4.45H319.8C319.8,158.8,320.61,157.16,322.8,155.51Zm-3.54,11.61a3.18,3.18,0,0,1,6.35,0,3.18,3.18,0,0,1-6.35,0Z"/><path class="cls-1" d="M1.77,34.69H7L20.87,51.44V34.35h6.22V62.2H21.9L8,45.46V62.55H1.77Z"/><path class="cls-1" d="M26.68,48.6c0-8.44,6.4-14.63,15-14.63s15,6.19,15,14.63-6.39,14.63-15,14.63S26.68,57,26.68,48.6Zm23.86,0a8.82,8.82,0,1,0-17.64,0,8.82,8.82,0,1,0,17.64,0Z"/><path class="cls-1" d="M55.12,48.6c0-8.44,6.39-14.63,15-14.63s15,6.19,15,14.63-6.39,14.63-15,14.63S55.12,57,55.12,48.6ZM79,48.6a8.82,8.82,0,1,0-17.64,0A8.82,8.82,0,1,0,79,48.6Z"/><path class="cls-1" d="M84.79,34.69h12.1c6.19,0,9.67,3.21,9.67,8.3a5.53,5.53,0,0,1-3.24,5,6.63,6.63,0,0,1,4.54,6.15c0,5.16-3.69,8.45-9.94,8.45H84.79ZM96.62,46c2.36,0,3.72-1,3.72-3S99,40,96.62,40H91v6Zm1,11.28c2.46,0,4-1.1,4-3.15S100.1,51,97.64,51H91v6.29Z"/><path class="cls-1" d="M112.89,34.69h5.19L132,51.44V34.35h6.22V62.2H133L119.11,45.46V62.55h-6.22Z"/><path class="cls-1" d="M137.8,48.6c0-8.44,6.4-14.63,15-14.63s15,6.19,15,14.63-6.39,14.63-15,14.63S137.8,57,137.8,48.6Zm23.86,0a8.82,8.82,0,1,0-17.64,0,8.82,8.82,0,1,0,17.64,0Z"/><path class="cls-1" d="M166.24,48.6c0-8.44,6.39-14.63,15-14.63s15,6.19,15,14.63-6.39,14.63-15,14.63S166.24,57,166.24,48.6Zm23.86,0a8.82,8.82,0,1,0-17.64,0,8.82,8.82,0,1,0,17.64,0Z"/><path class="cls-1" d="M195.91,34.69H208c6.19,0,9.67,3.21,9.67,8.3a5.53,5.53,0,0,1-3.24,5A6.63,6.63,0,0,1,219,54.1c0,5.16-3.69,8.45-9.95,8.45H195.91ZM207.74,46c2.35,0,3.72-1,3.72-3s-1.37-3-3.72-3h-5.61v6Zm1,11.28c2.46,0,4-1.1,4-3.15s-1.54-3.14-4-3.14h-6.63v6.29Z"/><path class="cls-1" d="M224,34.69h5.19l13.91,16.75V34.35h6.22V62.2h-5.19L230.23,45.46V62.55H224Z"/><path class="cls-1" d="M248.92,48.6c0-8.44,6.39-14.63,15-14.63s15,6.19,15,14.63-6.39,14.63-15,14.63S248.92,57,248.92,48.6Zm23.86,0a8.82,8.82,0,1,0-17.64,0,8.82,8.82,0,1,0,17.64,0Z"/><path class="cls-1" d="M277.36,48.6c0-8.44,6.39-14.63,15-14.63s15,6.19,15,14.63-6.39,14.63-15,14.63S277.36,57,277.36,48.6Zm23.86,0a8.82,8.82,0,1,0-17.64,0,8.82,8.82,0,1,0,17.64,0Z"/><path class="cls-1" d="M307,34.69h12.1c6.19,0,9.67,3.21,9.67,8.3a5.53,5.53,0,0,1-3.24,5,6.63,6.63,0,0,1,4.54,6.15c0,5.16-3.69,8.45-10,8.45H307ZM318.86,46c2.35,0,3.72-1,3.72-3s-1.37-3-3.72-3h-5.61v6Zm1,11.28c2.46,0,4-1.1,4-3.15s-1.54-3.14-4-3.14h-6.63v6.29Z"/><path class="cls-1" d="M1.77,107.12H7l13.91,16.75V106.78h6.22v27.85H21.9L8,117.88V135H1.77Z"/><path class="cls-1" d="M26.68,121c0-8.44,6.4-14.63,15-14.63s15,6.19,15,14.63-6.39,14.63-15,14.63S26.68,129.47,26.68,121Zm23.86,0a8.82,8.82,0,1,0-8.82,9A8.64,8.64,0,0,0,50.54,121Z"/><path class="cls-1" d="M55.12,121c0-8.44,6.39-14.63,15-14.63s15,6.19,15,14.63-6.39,14.63-15,14.63S55.12,129.47,55.12,121ZM79,121a8.82,8.82,0,1,0-8.82,9A8.64,8.64,0,0,0,79,121Z"/><path class="cls-1" d="M84.79,107.12h12.1c6.19,0,9.67,3.21,9.67,8.3a5.53,5.53,0,0,1-3.24,5,6.62,6.62,0,0,1,4.54,6.15c0,5.16-3.69,8.44-9.94,8.44H84.79ZM96.62,118.4c2.36,0,3.72-1,3.72-3s-1.36-3-3.72-3H91v6Zm1,11.28c2.46,0,4-1.1,4-3.15s-1.54-3.14-4-3.14H91v6.29Z"/><path class="cls-1" d="M112.89,107.12h5.19L132,123.87V106.78h6.22v27.85H133l-13.91-16.75V135h-6.22Z"/><path class="cls-1" d="M137.8,121c0-8.44,6.4-14.63,15-14.63s15,6.19,15,14.63-6.39,14.63-15,14.63S137.8,129.47,137.8,121Zm23.86,0a8.82,8.82,0,1,0-8.82,9A8.64,8.64,0,0,0,161.66,121Z"/><path class="cls-1" d="M166.24,121c0-8.44,6.39-14.63,15-14.63s15,6.19,15,14.63-6.39,14.63-15,14.63S166.24,129.47,166.24,121Zm23.86,0a8.82,8.82,0,1,0-8.82,9A8.64,8.64,0,0,0,190.1,121Z"/><path class="cls-1" d="M195.91,107.12H208c6.19,0,9.67,3.21,9.67,8.3a5.53,5.53,0,0,1-3.24,5,6.62,6.62,0,0,1,4.54,6.15c0,5.16-3.69,8.44-9.95,8.44H195.91Zm11.83,11.28c2.35,0,3.72-1,3.72-3s-1.37-3-3.72-3h-5.61v6Zm1,11.28c2.46,0,4-1.1,4-3.15s-1.54-3.14-4-3.14h-6.63v6.29Z"/><path class="cls-1" d="M224,107.12h5.19l13.91,16.75V106.78h6.22v27.85h-5.19l-13.91-16.75V135H224Z"/><path class="cls-1" d="M248.92,121c0-8.44,6.39-14.63,15-14.63s15,6.19,15,14.63-6.39,14.63-15,14.63S248.92,129.47,248.92,121Zm23.86,0a8.82,8.82,0,1,0-8.82,9A8.64,8.64,0,0,0,272.78,121Z"/><path class="cls-1" d="M277.36,121c0-8.44,6.39-14.63,15-14.63s15,6.19,15,14.63-6.39,14.63-15,14.63S277.36,129.47,277.36,121Zm23.86,0a8.82,8.82,0,1,0-8.82,9A8.64,8.64,0,0,0,301.22,121Z"/><path class="cls-1" d="M307,107.12h12.1c6.19,0,9.67,3.21,9.67,8.3a5.53,5.53,0,0,1-3.24,5,6.62,6.62,0,0,1,4.54,6.15c0,5.16-3.69,8.44-10,8.44H307Zm11.83,11.28c2.35,0,3.72-1,3.72-3s-1.37-3-3.72-3h-5.61v6Zm1,11.28c2.46,0,4-1.1,4-3.15s-1.54-3.14-4-3.14h-6.63v6.29Z"/><path class="cls-2" d="M19,183.28H11.94v17.47H7.08V183.28H0V179H19Z"/><path class="cls-2" d="M40.29,179v21.77H35.43v-8.84H25.82v8.84H21V179h4.86v8.63h9.61V179Z"/><path class="cls-2" d="M48.33,179v21.77H43.47V179Z"/><path class="cls-2" d="M68.7,185.55h-5c-.29-1.89-1.71-3-4-3s-3.53.91-3.53,2.21c0,1.63,1.69,2.19,5.93,3.07,5,1.05,6.73,3.53,6.73,6.79,0,4.16-3.93,6.7-8.78,6.7-5.37,0-9.3-2.91-9.51-7.56h5c.27,2.09,2.09,3.47,4.86,3.47,2,0,3.45-1,3.45-2.4,0-1.73-1.47-2.43-5.34-3.15-4.73-.88-7.29-2.83-7.29-6.92,0-3.92,3.9-6.27,8.81-6.27S68.46,181.41,68.7,185.55Z"/><path class="cls-2" d="M77.78,179h4.06L92.7,192.07V178.72h4.86v21.76H93.5L82.64,187.39v13.36H77.78Z"/><path class="cls-2" d="M100.74,179h16.18v4.22H105.6v4.43H116v4.22H105.6v4.68h11.56v4.22H100.74Z"/><path class="cls-2" d="M148.37,179l-6.27,21.77h-4.91l-3.9-13.65-3.9,13.65h-4.91L118.2,179h5.21l3.74,14.24L130.88,179h5.05l3.71,14.18L143.41,179Z"/><path class="cls-2" d="M156.81,179h8.36c5.66,0,9,3.15,9,8s-3.31,8-9,8h-3.5v5.8h-4.86ZM165,190.65c2.7,0,4.33-1.28,4.33-3.71s-1.63-3.66-4.33-3.66h-3.28v7.37Z"/><path class="cls-2" d="M175.12,189.85c0-6.59,5-11.43,11.75-11.43s11.75,4.84,11.75,11.43-5,11.43-11.75,11.43S175.12,196.45,175.12,189.85Zm18.64,0a6.89,6.89,0,1,0-6.89,7.05A6.75,6.75,0,0,0,193.76,189.85Z"/><path class="cls-2" d="M213.79,200.75l-4.22-6.87h-3.88v6.87h-4.85V179h8.75c5.53,0,8.76,2.94,8.76,7.45a6.76,6.76,0,0,1-4,6.49l5,7.83Zm-8.1-11.17h3.69c2.56,0,4.11-1.09,4.11-3.15s-1.55-3.15-4.11-3.15h-3.69Z"/><path class="cls-2" d="M238.32,183.28h-7.07v17.47h-4.86V183.28h-7.08V179h19Z"/><path class="cls-2" d="M240.27,179h16v4.28H245.13v4.94H255v4.21h-9.88v8.34h-4.86Z"/><path class="cls-2" d="M257.28,189.85c0-6.59,5-11.43,11.75-11.43s11.75,4.84,11.75,11.43-5,11.43-11.75,11.43S257.28,196.45,257.28,189.85Zm18.64,0A6.89,6.89,0,1,0,269,196.9,6.75,6.75,0,0,0,275.92,189.85Z"/><path class="cls-2" d="M287.85,179v17.47h10.87v4.3H283V179Z"/><path class="cls-2" d="M305.37,179v21.77h-4.86V179Z"/><path class="cls-2" d="M307.58,189.85c0-6.59,5-11.43,11.75-11.43s11.75,4.84,11.75,11.43-5,11.43-11.75,11.43S307.58,196.45,307.58,189.85Zm18.64,0a6.89,6.89,0,1,0-6.89,7.05A6.75,6.75,0,0,0,326.22,189.85Z"/></g></g></svg>