<?xml version="1.0" encoding="utf-8"?>
<!-- Generator: Adobe Illustrator 25.4.1, SVG Export Plug-In . SVG Version: 6.00 Build 0)  -->
<svg version="1.1" id="레이어_1" xmlns="http://www.w3.org/2000/svg" xmlns:xlink="http://www.w3.org/1999/xlink" x="0px"
	 y="0px" viewBox="0 0 89.6 92" style="enable-background:new 0 0 89.6 92;" xml:space="preserve">
<style type="text/css">
	.st0{fill:#FFFFFF;}
</style>
<g>
	<path class="st0" d="M63.66,6.58l-5.67,6.81l-1.57-0.57l0.05-8.85l1.76,0.64l-0.08,5.9l3.74-4.57L63.66,6.58z"/>
	<path class="st0" d="M62.95,15.81l-1.51-0.84l4.05-7.29l1.51,0.84L62.95,15.81z"/>
	<path class="st0" d="M68.97,20.11l-4.65-3.57l5.08-6.62l4.56,3.5l-0.87,1.13l-3.19-2.45l-1.14,1.48l3.04,2.33l-0.88,1.15
		l-3.04-2.33l-1.32,1.72l3.28,2.52L68.97,20.11z"/>
	<path class="st0" d="M76.97,16.34l-3.37,4.26l4.87-2.4l0.98,1.23l-3.38,4.25l4.88-2.38l1.07,1.33l-7.79,3.6l-1.06-1.32l3.27-4.06
		l-4.67,2.3l-1.04-1.3l5.19-6.85L76.97,16.34z"/>
	<path class="st0" d="M80.05,30.02l1.36-0.51l1.9,5.11l-1.36,0.51L80.05,30.02z"/>
	<path class="st0" d="M84.04,44.1l4.49,2.11l0.07,1.6l-8.34,0.38l-0.08-1.68l5.08-0.23l-3.21-1.48L82,43.57l3.06-1.75l-5.08,0.23
		l-0.08-1.68l8.34-0.38l0.07,1.59L84.04,44.1z"/>
	<path class="st0" d="M87.7,54.72c-0.52,2.48-2.71,3.52-5.07,3.03c-2.31-0.48-3.89-2.29-3.37-4.79c0.54-2.56,2.68-3.47,5-2.99
		C86.62,50.46,88.23,52.17,87.7,54.72z M83,55.96c1.55,0.32,2.99-0.17,3.28-1.54c0.29-1.38-0.83-2.42-2.38-2.74
		c-1.46-0.31-2.94,0.13-3.24,1.56C80.36,54.67,81.54,55.65,83,55.96z"/>
	<path class="st0" d="M75.22,64.02l0.88-1.88l3.75-0.6l0.38-0.8l-2.84-1.33l0.74-1.58l7.56,3.55l-1.34,2.85
		c-0.69,1.48-2.19,2.35-3.63,1.67c-0.98-0.46-1.47-1.49-1.44-2.57L75.22,64.02z M80.94,62.58c-0.29,0.62-0.19,1.41,0.53,1.75
		c0.72,0.34,1.3-0.07,1.6-0.69l0.6-1.28l-2.14-1.01L80.94,62.58z"/>
	<path class="st0" d="M71.17,69.35l3.54-4.68l6.66,5.04l-3.47,4.59l-1.14-0.86l2.43-3.21L77.7,69.1l-2.32,3.06l-1.15-0.87l2.31-3.06
		l-1.73-1.31l-2.5,3.3L71.17,69.35z"/>
	<path class="st0" d="M66.75,73.27l1.33-1.1l5.31,6.44l-1.33,1.1L66.75,73.27z"/>
	<path class="st0" d="M59.97,77.57l1.4-0.82l5.34,2.94l-2.63-4.52l1.5-0.88l4.2,7.22l-1.39,0.81l-5.38-2.99l2.66,4.57l-1.5,0.88
		L59.97,77.57z"/>
	<path class="st0" d="M55.49,86.43l3.7-1.23l-0.59-1.78l-3.49,1.16l-0.45-1.36l3.49-1.16l-1.14-3.42l1.64-0.54l2.63,7.92l-5.34,1.78
		L55.49,86.43z"/>
	<path class="st0" d="M49.83,88.89c-2.52,0.26-4.18-1.51-4.43-3.9c-0.24-2.35,1-4.4,3.54-4.66c2.6-0.27,4.12,1.5,4.36,3.85
		C53.55,86.57,52.41,88.63,49.83,88.89z M47.22,84.8c0.16,1.58,1.07,2.8,2.46,2.65c1.4-0.14,2.05-1.53,1.88-3.1
		c-0.15-1.49-1.02-2.76-2.47-2.61C47.64,81.89,47.07,83.32,47.22,84.8z"/>
	<path class="st0" d="M36.79,88.15l-1.51-0.33l-1.37-8.84l1.79,0.39l0.31,1.96l2.83,0.62l1.1-1.65l1.79,0.39L36.79,88.15z
		 M36.22,82.88l0.33,2.74L38,83.27L36.22,82.88z"/>
	<path class="st0" d="M26.67,80.52c-0.46-0.74-0.48-1.57-0.15-2.28c0.59-1.26,1.88-1.89,3.84-0.97l2.9,1.35l-3.54,7.57l-2.85-1.33
		c-1.43-0.67-2.19-1.83-1.55-3.2C25.6,81.06,26.08,80.69,26.67,80.52z M28.75,84.17l0.77-1.64l-1.47-0.69
		c-0.45-0.21-0.91,0-1.17,0.55c-0.22,0.47-0.01,0.9,0.65,1.21L28.75,84.17z M29.73,78.57c-0.77-0.36-1.37-0.15-1.66,0.47
		c-0.27,0.57-0.09,1.17,0.58,1.49l1.49,0.7l0.95-2.02L29.73,78.57z"/>
	<path class="st0" d="M18.83,80.08c-2-1.55-1.98-3.97-0.5-5.88c1.45-1.86,3.76-2.49,5.78-0.92c2.07,1.6,1.94,3.93,0.49,5.79
		C23.13,80.98,20.88,81.67,18.83,80.08z M19.78,75.33c-0.97,1.25-1.16,2.76-0.06,3.62c1.11,0.86,2.53,0.31,3.5-0.94
		c0.92-1.18,1.17-2.7,0.02-3.6C22.09,73.51,20.69,74.15,19.78,75.33z"/>
	<path class="st0" d="M9.7,70.4l4.32-3.48c1.45-1.17,3.13-0.73,4.28,0.7s1.24,3.12-0.24,4.32l-4.32,3.48l-1.1-1.37l4.2-3.39
		c0.76-0.62,0.87-1.44,0.32-2.12c-0.57-0.71-1.37-0.79-2.16-0.15l-4.2,3.39L9.7,70.4z"/>
	<path class="st0" d="M6.61,61.8l1.08,2.13l6.17-3.14l0.78,1.54l-6.17,3.14l1.07,2.1l-1.27,0.65l-2.94-5.77L6.61,61.8z"/>
	<path class="st0" d="M6.98,51.7L2.3,50.07l-0.24-1.58l8.25-1.26l0.25,1.66l-5.03,0.77l3.34,1.13L9.07,52l-2.86,2.07l5.03-0.77
		l0.25,1.66l-8.25,1.26L3,54.65L6.98,51.7z"/>
	<path class="st0" d="M10.85,39.96l-0.46,5.85l-8.32-0.65l0.45-5.73l1.42,0.11l-0.31,4.01l1.86,0.15l0.3-3.82l1.44,0.11l-0.3,3.82
		l2.17,0.17l0.32-4.12L10.85,39.96z"/>
	<path class="st0" d="M8.68,35.09l-1.36-0.51l1.9-5.11l1.36,0.51L8.68,35.09z"/>
	<path class="st0" d="M13.1,16.86l4.86,7.42l-1,1.34L8.5,22.98l1.13-1.5l5.62,1.8l-3.28-4.91L13.1,16.86z"/>
	<path class="st0" d="M21.7,20.24l-1.24,1.21l-5.82-5.98l1.24-1.21L21.7,20.24z"/>
	<path class="st0" d="M27.57,15.71l-4.76,3.42l-4.87-6.78l4.67-3.36l0.83,1.16l-3.26,2.35l1.09,1.52l3.11-2.24l0.84,1.17l-3.11,2.24
		l1.27,1.76l3.36-2.42L27.57,15.71z"/>
	<path class="st0" d="M26.27,6.96l3.1,4.47l-0.88-5.36l1.46-0.59l3.09,4.47l-0.86-5.37l1.59-0.64l1.18,8.51l-1.57,0.63l-2.94-4.31
		l0.85,5.15l-1.55,0.62L24.68,7.6L26.27,6.96z"/>
	<path class="st0" d="M40.29,8L40.2,6.55l5.44-0.33l0.09,1.45L40.29,8z"/>
</g>
</svg>
