<?xml version="1.0" encoding="utf-8"?>
<!-- Generator: Adobe Illustrator 25.4.1, SVG Export Plug-In . SVG Version: 6.00 Build 0)  -->
<svg version="1.1" id="레이어_1" xmlns="http://www.w3.org/2000/svg" xmlns:xlink="http://www.w3.org/1999/xlink" x="0px"
	 y="0px" viewBox="0 0 89.6 92" style="enable-background:new 0 0 89.6 92;" xml:space="preserve">
<style type="text/css">
	.st0{fill:#FFFFFF;}
</style>
<g>
	<path class="st0" d="M62.64,6.73l-5.4,6.54l-1.5-0.54l0.01-8.48l1.69,0.61l-0.06,5.64l3.56-4.39L62.64,6.73z"/>
	<path class="st0" d="M61.99,15.52l-1.46-0.78l3.78-7.02l1.46,0.78L61.99,15.52z"/>
	<path class="st0" d="M67.83,19.55l-4.52-3.33l4.74-6.43l4.43,3.27l-0.81,1.1l-3.1-2.28l-1.06,1.44l2.95,2.18l-0.82,1.11l-2.95-2.18
		l-1.23,1.67l3.19,2.35L67.83,19.55z"/>
	<path class="st0" d="M75.36,15.73l-3.11,4.16l4.59-2.42l0.97,1.15l-3.11,4.15l4.6-2.41l1.06,1.25l-7.35,3.65l-1.05-1.23l3.01-3.97
		l-4.41,2.33l-1.04-1.22l4.77-6.69L75.36,15.73z"/>
	<path class="st0" d="M78.7,28.68l1.28-0.54l2.02,4.8l-1.28,0.54L78.7,28.68z"/>
	<path class="st0" d="M83.14,41.87l4.39,1.78l0.15,1.52l-7.94,0.8l-0.16-1.6l4.84-0.49l-3.14-1.24l-0.12-1.17l2.83-1.84l-4.84,0.49
		L79,38.53l7.94-0.8l0.15,1.52L83.14,41.87z"/>
	<path class="st0" d="M87.25,51.73c-0.33,2.4-2.35,3.53-4.63,3.22c-2.23-0.31-3.86-1.93-3.52-4.35c0.34-2.48,2.33-3.48,4.57-3.17
		C85.95,47.74,87.6,49.27,87.25,51.73z M82.86,53.22c1.5,0.21,2.84-0.35,3.02-1.68c0.19-1.33-0.95-2.25-2.45-2.46
		c-1.41-0.2-2.79,0.31-2.99,1.7C80.26,52.16,81.45,53.02,82.86,53.22z"/>
	<path class="st0" d="M76.03,61.43l0.7-1.85l3.53-0.85l0.3-0.79l-2.8-1.06l0.59-1.56l7.47,2.83l-1.06,2.81
		c-0.55,1.46-1.91,2.4-3.34,1.86c-0.97-0.37-1.52-1.31-1.57-2.34L76.03,61.43z M81.37,59.64C81.14,60.26,81.3,61,82,61.27
		c0.71,0.27,1.24-0.16,1.47-0.78l0.48-1.27l-2.12-0.8L81.37,59.64z"/>
	<path class="st0" d="M72.62,66.84l2.99-4.75l6.75,4.25L79.43,71l-1.15-0.73l2.05-3.25l-1.51-0.95l-1.95,3.1l-1.17-0.74l1.95-3.1
		l-1.76-1.11l-2.11,3.35L72.62,66.84z"/>
	<path class="st0" d="M73.24,77.69c-1.21,1.1-2.82,1.14-3.86-0.01c-1.06-1.17-0.85-2.76,0.35-3.85l0.95-0.86l-1.85-2.05l1.23-1.12
		l5.35,5.92L73.24,77.69z M73.26,75.84L71.6,74l-0.98,0.88c-0.5,0.45-0.5,1.15-0.01,1.7c0.49,0.54,1.18,0.59,1.68,0.15L73.26,75.84z
		"/>
	<path class="st0" d="M66.34,82.87c-2.09,1.22-4.23,0.33-5.39-1.65c-1.14-1.95-0.86-4.23,1.25-5.46c2.16-1.26,4.18-0.31,5.31,1.63
		C68.67,79.38,68.49,81.62,66.34,82.87z M62.46,80.34c0.76,1.31,2.03,2.01,3.18,1.34c1.16-0.68,1.18-2.13,0.42-3.44
		c-0.72-1.23-1.97-2-3.18-1.3C61.68,77.64,61.74,79.1,62.46,80.34z"/>
	<path class="st0" d="M51.76,80.06l1.89-0.6l2.85,2.25l0.81-0.25l-0.9-2.86L58,78.1l2.4,7.63l-2.87,0.9
		c-1.49,0.47-3.07-0.02-3.53-1.47c-0.31-0.99,0.09-2,0.87-2.68L51.76,80.06z M56.47,83.15c-0.63,0.2-1.11,0.78-0.89,1.5
		c0.23,0.73,0.9,0.87,1.52,0.67l1.29-0.41l-0.68-2.16L56.47,83.15z"/>
	<path class="st0" d="M46.62,87.28l2.27-0.27l-0.78-6.57l1.64-0.2l0.78,6.57l2.24-0.27l0.16,1.35l-6.15,0.73L46.62,87.28z"/>
	<path class="st0" d="M39.15,86.94l3.73,0.23l0.11-1.79l-3.51-0.22l0.08-1.37l3.51,0.22l0.21-3.44l1.65,0.1l-0.49,7.97l-5.38-0.33
		L39.15,86.94z"/>
	<path class="st0" d="M33.34,87.16c-2.34-0.65-3.2-2.8-2.59-5.02c0.6-2.18,2.42-3.58,4.78-2.92c2.41,0.67,3.15,2.77,2.55,4.95
		C37.47,86.39,35.74,87.83,33.34,87.16z M32.45,82.61c-0.4,1.46-0.02,2.86,1.27,3.22c1.3,0.36,2.35-0.65,2.76-2.11
		c0.38-1.38,0.06-2.81-1.3-3.19C33.83,80.17,32.82,81.24,32.45,82.61z"/>
	<path class="st0" d="M26.35,75.46l4.59,2.36l-3.65,7.1l-1.47-0.76l3.02-5.88l-3.12-1.6L26.35,75.46z"/>
	<path class="st0" d="M24.1,73.81l1.35,0.95l-4.59,6.53l-1.35-0.95L24.1,73.81z"/>
	<path class="st0" d="M14.81,76.53c-1.74-1.69-1.45-3.99,0.15-5.64c1.57-1.61,3.84-1.96,5.59-0.26c1.79,1.75,1.42,3.94-0.16,5.56
		C18.79,77.84,16.58,78.26,14.81,76.53z M16.21,72.11c-1.06,1.08-1.4,2.5-0.44,3.43c0.96,0.94,2.37,0.57,3.43-0.52
		c1-1.02,1.4-2.44,0.4-3.41C18.61,70.64,17.21,71.09,16.21,72.11z"/>
	<path class="st0" d="M7.83,67.65l4.01-3.3L6.8,65.61l-0.67-1.35l4.02-3.3L5.1,62.2l-0.73-1.46l8.02-1.8l0.72,1.45l-3.88,3.14
		l4.84-1.21l0.72,1.43l-6.23,5.36L7.83,67.65z"/>
	<path class="st0" d="M2.8,54.95c-0.52-2.37,0.99-4.13,3.24-4.62c2.2-0.48,4.29,0.48,4.81,2.87c0.53,2.44-0.99,4.07-3.19,4.55
		C5.41,58.24,3.33,57.37,2.8,54.95z M6.41,52.03c-1.48,0.32-2.54,1.31-2.26,2.62c0.29,1.31,1.67,1.78,3.15,1.46
		c1.4-0.3,2.52-1.26,2.22-2.63C9.22,52.13,7.81,51.73,6.41,52.03z"/>
	<path class="st0" d="M10,41.95l-0.03,1.98l-3.03,1.99l-0.01,0.85l3,0.05L9.9,48.48l-7.99-0.13l0.05-3.01
		c0.03-1.56,0.99-2.91,2.51-2.88c1.03,0.02,1.87,0.72,2.27,1.67L10,41.95z M5.59,45.44c0.01-0.66-0.39-1.3-1.14-1.32
		c-0.76-0.01-1.11,0.57-1.12,1.23L3.3,46.71l2.27,0.04L5.59,45.44z"/>
	<path class="st0" d="M5.38,38.46L3.2,35.43l0.48-2.2l2.98,4.19l4.93-2.97l-0.49,2.23L7.34,38.9l3.12,0.68l-0.35,1.62l-7.8-1.71
		l0.35-1.62L5.38,38.46z"/>
	<path class="st0" d="M10.08,30.16L8.86,29.5l2.46-4.59l1.23,0.66L10.08,30.16z"/>
	<path class="st0" d="M16.45,13.47l3.76,7.6l-1.11,1.15l-7.73-3.48l1.24-1.29l5.12,2.36l-2.54-5.04L16.45,13.47z"/>
	<path class="st0" d="M24.21,17.65l-1.31,1.01l-4.87-6.32l1.31-1.01L24.21,17.65z"/>
	<path class="st0" d="M30.27,13.97l-4.88,2.76l-3.93-6.94l4.78-2.71l0.67,1.19l-3.35,1.89l0.88,1.55l3.19-1.8l0.68,1.2l-3.19,1.8
		l1.02,1.81l3.44-1.95L30.27,13.97z"/>
	<path class="st0" d="M29.87,5.52l2.53,4.55l-0.33-5.18l1.45-0.42l2.52,4.55l-0.31-5.19l1.57-0.46l0.32,8.21l-1.55,0.45l-2.39-4.38
		L34,12.63l-1.54,0.45l-4.15-7.1L29.87,5.52z"/>
	<path class="st0" d="M43.04,7.81l0.03-1.39l5.21,0.12l-0.03,1.39L43.04,7.81z"/>
</g>
</svg>
