<?xml version="1.0" encoding="iso-8859-1"?>
<!-- Generator: Adobe Illustrator 19.0.0, SVG Export Plug-In . SVG Version: 6.00 Build 0)  -->
<svg version="1.1" id="Layer_1" xmlns="http://www.w3.org/2000/svg" xmlns:xlink="http://www.w3.org/1999/xlink" x="0px" y="0px"
	 viewBox="0 0 512 512" style="enable-background:new 0 0 512 512;" xml:space="preserve">
<path style="fill:#FF2222;" d="M512,256.8l-67.2-54.232L488,127.6l-91.2-7.976l-8-87.728L312,68.584L259.2,0l-49.6,70.184
	l-80-41.472l-4.8,90.912l-89.6,4.784l33.6,86.128L0,252.016l70.4,52.632l-35.2,74.968l88,9.568l4.8,89.32l81.6-38.28L264,512
	l48-71.776l75.2,36.688l6.4-89.32l88-1.592l-32-73.368L512,256.8z"/>
<g>
	<path style="fill:#FFFFFF;" d="M103.864,170.12h62.12v16.12H123.52v29.712h39.584v16.12H123.52v45.664h-19.656V170.12z"/>
	<path style="fill:#FFFFFF;" d="M181.072,171.56c7.36-1.272,18.36-2.24,29.712-2.24c15.48,0,26.032,2.552,33.208,8.616
		c5.904,4.952,9.256,12.464,9.256,21.568c0,13.88-9.416,23.32-19.472,26.976v0.496c7.672,2.856,12.296,10.36,15.008,20.744
		c3.352,13.408,6.232,25.864,8.472,30.016H236.96c-1.584-3.184-4.152-11.968-7.176-25.392c-3.04-14.04-8.144-18.528-19.328-18.832
		h-9.896v44.232h-19.496V171.56H181.072z M200.56,219.136h11.656c13.24,0,21.552-7.032,21.552-17.728
		c0-11.824-8.304-17.248-21.072-17.248c-6.232,0-10.216,0.496-12.128,0.968v34.008H200.56z"/>
	<path style="fill:#FFFFFF;" d="M332.056,229.992h-40.544v31.624h45.336v16.12h-64.992V170.12h62.592v16.12h-42.936v27.8h40.544
		V229.992z"/>
	<path style="fill:#FFFFFF;" d="M414.2,229.992h-40.544v31.624h45.336v16.12H354V170.12h62.592v16.12h-42.936v27.8H414.2V229.992z"
		/>
	<path style="fill:#FFFFFF;" d="M105.4,335.168c3.104,1.792,7.752,3.328,12.624,3.328c6.104,0,9.52-2.856,9.52-7.112
		c0-3.944-2.632-6.272-9.296-8.68c-8.592-3.088-14.088-7.672-14.088-15.176c0-8.512,7.112-15.008,18.424-15.008
		c5.656,0,9.832,1.232,12.544,2.632l-2.32,7.648c-1.848-1.008-5.488-2.464-10.384-2.464c-6.024,0-8.656,3.248-8.656,6.272
		c0,4.032,3.024,5.88,9.992,8.592c9.048,3.416,13.464,7.976,13.464,15.48c0,8.368-6.352,15.648-19.824,15.648
		c-5.512,0-11.224-1.56-14.104-3.248L105.4,335.168z"/>
	<path style="fill:#FFFFFF;" d="M155.328,293.368v20.912h22.064v-20.912h9.52v52.184h-9.52V322.56h-22.064v22.984h-9.544V293.36
		h9.544V293.368z"/>
	<path style="fill:#FFFFFF;" d="M207.304,293.368v52.184h-9.544v-52.184H207.304z"/>
	<path style="fill:#FFFFFF;" d="M218.208,294.064c3.416-0.616,8.144-1.088,14.56-1.088c6.968,0,12.088,1.48,15.424,4.256
		c3.088,2.568,5.096,6.664,5.096,11.536c0,4.952-1.544,9.064-4.48,11.84c-3.8,3.8-9.768,5.592-16.488,5.592
		c-1.792,0-3.416-0.08-4.648-0.312v19.656h-9.456v-51.48H218.208z M227.664,318.368c1.152,0.312,2.712,0.392,4.648,0.392
		c7.112,0,11.456-3.472,11.456-9.6c0-5.8-4.032-8.904-10.608-8.904c-2.632,0-4.48,0.224-5.488,0.472v17.64H227.664z"/>
	<path style="fill:#FFFFFF;" d="M261.448,294.064c3.416-0.616,8.144-1.088,14.56-1.088c6.968,0,12.088,1.48,15.424,4.256
		c3.088,2.568,5.096,6.664,5.096,11.536c0,4.952-1.544,9.064-4.48,11.84c-3.8,3.8-9.768,5.592-16.488,5.592
		c-1.792,0-3.416-0.08-4.648-0.312v19.656h-9.456v-51.48H261.448z M270.904,318.368c1.152,0.312,2.712,0.392,4.648,0.392
		c7.112,0,11.456-3.472,11.456-9.6c0-5.8-4.032-8.904-10.608-8.904c-2.632,0-4.48,0.224-5.488,0.472v17.64H270.904z"/>
	<path style="fill:#FFFFFF;" d="M314.224,293.368v52.184h-9.544v-52.184H314.224z"/>
	<path style="fill:#FFFFFF;" d="M325.128,345.552v-52.184h10.856l13.464,22.368c3.472,5.816,6.496,11.84,8.904,17.496h0.144
		c-0.616-6.968-0.84-13.696-0.84-21.672v-18.2h8.824v52.184h-9.832l-13.632-22.928c-3.328-5.72-6.808-12.152-9.352-18.032
		l-0.248,0.08c0.392,6.72,0.472,13.608,0.472,22.208v18.672h-8.76V345.552z"/>
	<path style="fill:#FFFFFF;" d="M419.232,343.144c-3.328,1.256-9.832,2.944-16.8,2.944c-8.84,0-15.48-2.24-20.44-6.968
		c-4.648-4.4-7.36-11.288-7.28-19.184c0-16.488,11.76-27.104,29.032-27.104c6.416,0,11.456,1.312,13.856,2.464l-2.096,7.672
		c-2.856-1.232-6.352-2.24-11.84-2.24c-11.144,0-18.976,6.576-18.976,18.728c0,11.84,7.28,18.896,18.112,18.896
		c3.416,0,5.96-0.472,7.216-1.088v-13.016h-9.208v-7.504h18.424V343.144z"/>
</g>
<g>
</g>
<g>
</g>
<g>
</g>
<g>
</g>
<g>
</g>
<g>
</g>
<g>
</g>
<g>
</g>
<g>
</g>
<g>
</g>
<g>
</g>
<g>
</g>
<g>
</g>
<g>
</g>
<g>
</g>
</svg>
