<?xml version="1.0" encoding="utf-8"?>
<!-- Generator: Adobe Illustrator 25.4.1, SVG Export Plug-In . SVG Version: 6.00 Build 0)  -->
<svg version="1.1" id="레이어_1" xmlns="http://www.w3.org/2000/svg" xmlns:xlink="http://www.w3.org/1999/xlink" x="0px"
	 y="0px" viewBox="0 0 132.93 131.71" style="enable-background:new 0 0 132.93 131.71;" xml:space="preserve">
<style type="text/css">
	.st0{fill:#C43034;}
	.st1{fill:#040000;}
</style>
<g>
	<g>
		<path class="st0" d="M46.37,56.67c-6.02,6.92-11.29,14.33-15.79,22.32c-1.29,1.91-1.11,1.68,0.54-0.7
			c1.32-1.24,2.85-2.11,4.59-2.6c8.13-2.4,17.72,4.78,18.06,13.16c0.15,1.68-0.19,3.25-1.02,4.7c0.52-0.96,1.06-1.9,1.63-2.83
			c1.07-1.82,2.18-3.62,3.28-5.42c2.2-3.61,4.45-7.19,6.82-10.69c1.18-1.75,2.41-3.46,3.65-5.17c-2.67,3.7,1.16-1.4,1.76-2.11
			c6.89-8.06,13.56-14.6,17.38-24.84c-13.5,0-27,0-40.5,0c2.76,14.76,19.8,21.53,31.29,28.5c1.13,0.68,2.23,1.4,3.35,2.09
			c2.97,1.83-0.43-0.49-0.46-0.47c-0.19,0.13,4.01,3.53,1.49,1.17c-2.56-2.4,1.22,0.96,0.84,1.58c0.36-0.59-1.37-4.32-0.18-0.18
			c0.15,0.47,0.27,0.96,0.37,1.44c0.34,1.59,0.27,0.96-0.2-1.9c-0.08,0.1-0.06,2.9,0.02,2.98c0.51-2.85,0.58-3.49,0.23-1.91
			c-0.38,1.56-0.2,0.97,0.55-1.77c2.51-2.51,5.02-5.02,7.53-7.53c0.66-0.48,7.47-1.13,3.98-1.16c1.97,0.02,3.66,0.44,5.38,1.4
			c-3.77-2.13,2.81,3.25-0.09,0.03c3.37,3.75,3.06,8.82,2.14,13.67c-0.52,2.75,0.33,0.18,0.95-0.9c1.22-2.12,2.27-4.41,2.93-6.75
			c0.66-2.33,1.19-4.97,1.09-7.43c-0.25-1.86-0.5-3.72-0.75-5.58c-0.45-3.76-0.53-1.74-0.23,6.07c-1.8,3.09-3.6,6.18-5.4,9.27
			c-3.01,2.01-3.55,2.48-1.62,1.43c1.81-1.17,3.54-2.47,5.17-3.89c3.22-3.15,5.56-7.29,6.66-11.66c2.12-8.44-0.29-16.78-5.48-23.5
			c-6.24-8.08-14.09-15.11-21.18-22.44c-8.1-8.36-21.49-7.64-29.7,0c-11.71,10.9-23.01,21.94-32.61,34.79
			C13.94,61.74,6.33,77.76,7.75,93c1.02,10.89,6.49,21.16,16.71,26.02c10.22,4.86,21.2,4.82,31.4-0.04
			c7.72-3.67,13.34-9.9,18.22-16.75c1.86-2.61,3.47-5.36,5.15-8.08c0.87-1.4,1.83-2.75,2.69-4.15c0.88-1.24,0.62-0.91-0.79,1
			c0.71-0.83,1.47-1.62,2.27-2.36c7.85-7.71,8.31-22.07,0-29.7c-8.44-7.75-21.33-8.23-29.7,0c-4.39,4.31-7.97,9.49-11.18,14.72
			c-1.25,2.04-2.69,4.04-3.84,6.13c-1.31,2.39,2.41-2.56,0.54-0.59c-0.31,0.33-2.07,2.86-2.59,2.75c0.65-0.46,1.29-0.93,1.94-1.39
			c-0.41,0.27-0.83,0.55-1.24,0.82c-0.43,0.24-0.87,0.48-1.3,0.72c2.67-1.01,3.27-1.32,1.78-0.93c-2.65,0.82,4.4-0.72,1.67-0.38
			c-1.67-0.08-0.88,0,2.37,0.26c0.88,0.39,1.76,0.79,2.65,1.18c1.55,0.98,2.98,2.63,3.84,4.24c0.32,0.82,0.65,1.63,0.97,2.45
			c0.22,2.79,0.32,3.37,0.29,1.75c0.08-0.52,0.34-4.1-0.06-1.15c-0.44,3.25,0.47-1.73,0.53-1.96c0.27-1.04,0.62-2.05,0.92-3.09
			c0.78-2.7-0.38-0.61-0.35,0.51c-0.04-1.7,2.53-5.02,3.4-6.48c1.26-2.12,2.66-4.13,4.08-6.14c3.02-4.27-1.79,1.95,0.22-0.28
			c0.81-0.89,1.54-1.87,2.33-2.78c7.53-8.79,16.02-16.68,24.48-24.55c-9.9,0-19.8,0-29.7,0c3.62,3.74,7.24,7.47,10.86,11.21
			c1.81,1.87,3.62,3.73,5.43,5.61c0.78,0.8,1.56,1.61,2.33,2.42c-3.15-3.4-4.21-7.68-3.18-12.86c1.8-3.09,3.6-6.18,5.4-9.27
			c2.85-1.72,3.35-2.08,1.5-1.09c-0.31,0.19-0.62,0.38-0.92,0.57c-3.22,1.98-6.32,5.04-8.24,8.32c-1.98,3.38-3.15,7.89-3.21,11.78
			c-0.03,2.1,1.93,7.63,1.14,8.18c-0.87,0.61,4.19-16.7-0.28-9.04c-1.24,2.13-2.3,4.4-3.02,6.75c-1.67,5.49-1.48,11.04,0.28,16.48
			c6.62,20.59,33.87,30.85,51.4,17.31c16.21-12.52,11.51-38.61,0.54-52.81c-4.95-6.41-11.6-10.81-18.47-14.94
			c-3.19-1.91-6.37-3.83-9.56-5.74c-1.33-0.8-2.66-1.59-3.98-2.39c-0.67-0.39-1.32-0.8-1.97-1.22c2.76,1.67,4.69,4.1,5.79,7.32
			c-1.61-8.63-11.65-15.8-20.25-15.42c-9.85,0.44-16.87,6.36-20.25,15.42c0.31-0.75,0.62-1.49,0.93-2.24
			c-1.03,1.59-1.04,1.72-0.03,0.4c0.91-1.09,0.99-1.2,0.25-0.31c-0.49,0.59-1,1.17-1.53,1.73c-1.65,1.8-3.39,3.53-5.01,5.36
			c-4.57,5.15-8.76,10.71-12.65,16.39C21.38,63.37,11.8,76.07,11.79,89.53c-0.03,21.46,23.63,34.33,41.97,23.8
			c6.49-3.73,10.91-9.42,14.63-15.76c1.44-2.45,2.88-4.88,4.49-7.21c0.66-0.96,1.35-1.9,2.04-2.83c-2.86,3.81,0.75-0.71,1.14-1.16
			c7.2-8.28,8.76-21.66,0-29.7C68.16,49.41,54.07,47.81,46.37,56.67L46.37,56.67z"/>
	</g>
</g>
<g>
	<g>
		<path class="st1" d="M104.4,62.33l-19.6-19.6c-0.61-0.61-1.69-0.61-2.3,0l-4.25,4.25c-0.63,0.63-0.63,1.66,0,2.3l14.21,14.2
			L78.24,77.68c-0.63,0.63-0.63,1.66,0,2.3l4.25,4.25c0.3,0.3,0.72,0.48,1.15,0.48c0.43,0,0.84-0.17,1.15-0.48l19.6-19.6
			C105.03,63.99,105.03,62.96,104.4,62.33z"/>
		<path class="st1" d="M54.68,77.68l-14.2-14.21l14.21-14.2c0.3-0.3,0.48-0.72,0.48-1.15c0-0.43-0.17-0.84-0.48-1.15l-4.25-4.25
			c-0.3-0.3-0.72-0.48-1.15-0.48c-0.43,0-0.84,0.17-1.15,0.48l-19.61,19.6c-0.63,0.63-0.63,1.66,0,2.3l19.6,19.6
			c0.3,0.3,0.72,0.48,1.15,0.48c0.43,0,0.84-0.17,1.15-0.48l4.25-4.25C55.32,79.35,55.32,78.32,54.68,77.68z"/>
		<path class="st1" d="M77.61,36.13c-0.21-0.38-0.55-0.66-0.97-0.78l-3.45-1.02c-0.86-0.26-1.77,0.24-2.02,1.1l-16,54.17
			c-0.12,0.41-0.07,0.86,0.13,1.24c0.21,0.38,0.55,0.66,0.97,0.78l3.45,1.02c0.15,0.05,0.31,0.07,0.46,0.07
			c0.7,0,1.35-0.46,1.56-1.17l16-54.17C77.86,36.95,77.82,36.5,77.61,36.13z"/>
	</g>
</g>
</svg>
