<?xml version="1.0" encoding="utf-8"?>
<!-- Generator: Adobe Illustrator 25.4.1, SVG Export Plug-In . SVG Version: 6.00 Build 0)  -->
<svg version="1.1" id="레이어_1" xmlns="http://www.w3.org/2000/svg" xmlns:xlink="http://www.w3.org/1999/xlink" x="0px"
	 y="0px" viewBox="0 0 346.55 223.12" style="enable-background:new 0 0 346.55 223.12;" xml:space="preserve">
<style type="text/css">
	.st0{fill:#FFFFFF;}
	.st1{fill:#F1AB4E;}
</style>
<g>
	<path class="st0" d="M10.13,11.59h9.37c6.34,0,10.05,3.53,10.05,8.92c0,5.45-3.71,8.98-10.05,8.98h-3.92v6.49h-5.45V11.59z
		 M19.25,24.67c3.02,0,4.85-1.44,4.85-4.16c0-2.69-1.83-4.1-4.85-4.1h-3.68v8.26H19.25z"/>
	<path class="st0" d="M30.68,11.59h5.45v13.58c0,3.89,2.15,6.49,5.71,6.49c3.56,0,5.72-2.6,5.72-6.49V11.59h5.45v13.58
		c0,6.91-4.46,11.4-11.16,11.4s-11.16-4.49-11.16-11.4V11.59z"/>
	<path class="st0" d="M55.52,11.59h10.59c5.42,0,8.47,2.81,8.47,7.27c0,1.74-1.17,3.71-2.84,4.34c2.33,0.75,3.98,3.02,3.98,5.39
		c0,4.52-3.23,7.39-8.71,7.39H55.52V11.59z M65.87,21.47c2.06,0,3.26-0.9,3.26-2.6s-1.2-2.63-3.26-2.63h-4.91v5.24H65.87z
		 M66.77,31.34c2.15,0,3.5-0.96,3.5-2.75s-1.35-2.75-3.5-2.75h-5.81v5.51H66.77z"/>
	<path class="st0" d="M82.87,11.59v19.57h12.18v4.82H77.42V11.59H82.87z"/>
	<path class="st0" d="M101.75,11.59v24.39H96.3V11.59H101.75z"/>
	<path class="st0" d="M123.83,18.95h-5.63c-0.33-2.12-1.92-3.41-4.52-3.41c-2.54,0-3.95,1.02-3.95,2.48c0,1.83,1.89,2.45,6.64,3.44
		c5.63,1.17,7.54,3.95,7.54,7.6c0,4.67-4.4,7.51-9.84,7.51c-6.01,0-10.41-3.26-10.65-8.47h5.6c0.3,2.33,2.33,3.89,5.45,3.89
		c2.21,0,3.86-1.11,3.86-2.69c0-1.95-1.65-2.72-5.98-3.53c-5.3-0.99-8.17-3.17-8.17-7.75c0-4.4,4.37-7.03,9.87-7.03
		C119.49,10.99,123.56,14.31,123.83,18.95z"/>
	<path class="st0" d="M147.29,11.59v24.39h-5.45v-9.9h-10.77v9.9h-5.45V11.59h5.45v9.67h10.77v-9.67H147.29z"/>
	<path class="st0" d="M150.1,11.59h18.13v4.73h-12.69v4.97h11.64v4.73h-11.64v5.24h12.96v4.73h-18.4V11.59z"/>
	<path class="st0" d="M185.17,35.98l-4.73-7.69h-4.34v7.69h-5.45V11.59h9.81c6.19,0,9.82,3.29,9.82,8.35c0,3.35-1.59,5.92-4.46,7.27
		l5.66,8.77H185.17z M176.1,23.47h4.13c2.87,0,4.61-1.23,4.61-3.53c0-2.3-1.74-3.53-4.61-3.53h-4.13V23.47z"/>
	<path class="st0" d="M199.38,11.59h4.55l12.18,14.66V11.29h5.45v24.39H217l-12.18-14.66v14.96h-5.45V11.59z"/>
	<path class="st0" d="M224.36,11.59h18.13v4.73h-12.69v4.97h11.64v4.73h-11.64v5.24h12.96v4.73h-18.4V11.59z"/>
	<path class="st0" d="M277,11.59l-7.03,24.39h-5.51l-4.37-15.29l-4.37,15.29h-5.5l-7.03-24.39h5.83l4.19,15.95l4.19-15.95h5.66
		l4.16,15.89l4.22-15.89H277z"/>
	<path class="st0" d="M287.38,22.03v4.49h-11.46v-4.49H287.38z"/>
	<path class="st0" d="M289.38,11.59h10.59c5.42,0,8.47,2.81,8.47,7.27c0,1.74-1.17,3.71-2.84,4.34c2.33,0.75,3.98,3.02,3.98,5.39
		c0,4.52-3.23,7.39-8.71,7.39h-11.49V11.59z M299.74,21.47c2.06,0,3.26-0.9,3.26-2.6s-1.2-2.63-3.26-2.63h-4.91v5.24H299.74z
		 M300.64,31.34c2.15,0,3.5-0.96,3.5-2.75s-1.35-2.75-3.5-2.75h-5.8v5.51H300.64z"/>
	<path class="st0" d="M316.73,11.59v24.39h-5.45V11.59H316.73z"/>
	<path class="st0" d="M319.54,11.59h18.13v4.73h-12.69v4.97h11.64v4.73h-11.64v5.24h12.96v4.73h-18.4V11.59z"/>
</g>
<g>
	<path class="st0" d="M10.13,84.02h4.55l12.18,14.66V83.72h5.45v24.39h-4.55L15.57,93.45v14.96h-5.45V84.02z"/>
	<path class="st0" d="M35.11,84.02h18.13v4.73H40.56v4.97H52.2v4.73H40.56v5.24h12.96v4.73h-18.4V84.02z"/>
	<path class="st0" d="M55.67,84.02H73.8v4.73H61.11v4.97h11.64v4.73H61.11v5.24h12.96v4.73h-18.4V84.02z"/>
	<path class="st0" d="M76.22,84.02h9.46c8.08,0,13.08,5,13.08,12.21s-5,12.18-13.08,12.18h-9.46V84.02z M85.77,103.59
		c4.67,0,7.54-2.66,7.54-7.36s-2.87-7.39-7.54-7.39h-4.1v14.75H85.77z"/>
	<path class="st0" d="M122.33,103.68h-9.46l-1.71,4.73h-5.63L115,84.02h5.66l9.46,24.39h-6.07L122.33,103.68z M120.66,98.95
		l-3.05-8.5l-3.05,8.5H120.66z"/>
	<path class="st0" d="M159.89,84.02l-7.03,24.39h-5.51l-4.37-15.29l-4.37,15.29h-5.51l-7.03-24.39h5.83l4.19,15.95l4.19-15.95h5.66
		l4.16,15.89l4.22-15.89H159.89z"/>
	<path class="st0" d="M179.39,91.38h-5.63c-0.33-2.12-1.91-3.41-4.52-3.41c-2.54,0-3.95,1.02-3.95,2.48c0,1.83,1.89,2.45,6.64,3.44
		c5.63,1.17,7.54,3.95,7.54,7.6c0,4.67-4.4,7.51-9.84,7.51c-6.01,0-10.41-3.26-10.65-8.47h5.6c0.3,2.33,2.33,3.89,5.45,3.89
		c2.21,0,3.86-1.11,3.86-2.69c0-1.95-1.65-2.72-5.98-3.53c-5.3-0.99-8.17-3.17-8.17-7.75c0-4.4,4.37-7.03,9.87-7.03
		C175.06,83.42,179.12,86.74,179.39,91.38z"/>
	<path class="st0" d="M180.11,96.2c0-7.39,5.6-12.81,13.17-12.81c7.57,0,13.17,5.42,13.17,12.81c0,7.39-5.59,12.81-13.17,12.81
		C185.71,109.01,180.11,103.59,180.11,96.2z M201,96.2c0-4.61-3.29-7.9-7.72-7.9c-4.43,0-7.72,3.29-7.72,7.9
		c0,4.58,3.29,7.9,7.72,7.9C197.71,104.1,201,100.78,201,96.2z"/>
	<path class="st0" d="M208.18,84.02h4.34l8.41,13.64l8.41-13.64h4.34v24.39h-5.45V95.03l-5.66,9.37h-3.29l-5.66-9.37v13.38h-5.45
		V84.02z"/>
	<path class="st0" d="M236.48,84.02h18.13v4.73h-12.69v4.97h11.64v4.73h-11.64v5.24h12.96v4.73h-18.4V84.02z"/>
	<path class="st0" d="M267.57,100.3c0,1.8,1.44,3.8,4.13,3.8c2.69,0,4.31-1.89,4.31-4.7V84.02h5.45V99.4c0,5.83-3.89,9.6-9.75,9.6
		c-5.87,0-9.52-3.86-9.58-8.71H267.57z"/>
	<path class="st0" d="M282.83,96.2c0-7.39,5.6-12.81,13.17-12.81s13.17,5.42,13.17,12.81c0,7.39-5.6,12.81-13.17,12.81
		S282.83,103.59,282.83,96.2z M303.72,96.2c0-4.61-3.29-7.9-7.72-7.9s-7.72,3.29-7.72,7.9c0,4.58,3.29,7.9,7.72,7.9
		S303.72,100.78,303.72,96.2z"/>
	<path class="st0" d="M310.9,84.02h10.59c5.42,0,8.47,2.81,8.47,7.27c0,1.74-1.17,3.71-2.84,4.34c2.33,0.75,3.98,3.02,3.98,5.39
		c0,4.52-3.23,7.39-8.71,7.39H310.9V84.02z M321.25,93.9c2.06,0,3.26-0.9,3.26-2.6s-1.2-2.63-3.26-2.63h-4.91v5.24H321.25z
		 M322.15,103.77c2.15,0,3.5-0.96,3.5-2.75s-1.35-2.75-3.5-2.75h-5.8v5.51H322.15z"/>
	<path class="st0" d="M337.23,100.33h-3.71l-1.38-16.31h6.46L337.23,100.33z M338.55,105.68c0,1.83-1.35,3.14-3.17,3.14
		s-3.17-1.32-3.17-3.14s1.35-3.17,3.17-3.17S338.55,103.86,338.55,105.68z"/>
</g>
<g>
	<path class="st0" d="M17.22,170.54c-1.77,1.35-2.72,2.24-2.72,3.68c0,1.5,1.08,2.42,2.96,2.42c2,0,3.08-1.41,3.08-2.93h5.21
		c0,4.31-3.41,7.54-8.26,7.54c-5.18,0-8.11-2.96-8.11-7.03c0-2.21,1.08-3.98,3.02-5.48c2.18-1.71,2.87-2.78,2.87-4.46h4.94
		C20.21,167.25,19.4,168.9,17.22,170.54z M14.41,158.93c0-1.83,1.35-3.14,3.17-3.14s3.17,1.32,3.17,3.14c0,1.83-1.35,3.17-3.17,3.17
		S14.41,160.76,14.41,158.93z"/>
	<path class="st0" d="M27.48,156.45h5.45v13.58c0,3.89,2.15,6.49,5.71,6.49c3.56,0,5.72-2.6,5.72-6.49v-13.58h5.45v13.58
		c0,6.91-4.46,11.4-11.16,11.4s-11.16-4.49-11.16-11.4V156.45z"/>
	<path class="st0" d="M91.28,156.45l-7.03,24.39h-5.51l-4.37-15.29L70,180.84H64.5l-7.03-24.39h5.83l4.19,15.95l4.19-15.95h5.66
		l4.16,15.89l4.22-15.89H91.28z"/>
	<path class="st0" d="M104.02,176.11h-9.46l-1.71,4.73h-5.63l9.46-24.39h5.66l9.46,24.39h-6.07L104.02,176.11z M102.35,171.38
		l-3.05-8.5l-3.05,8.5H102.35z"/>
	<path class="st0" d="M112.76,156.45h4.55l12.18,14.66v-14.96h5.45v24.39h-4.55l-12.18-14.66v14.96h-5.45V156.45z"/>
	<path class="st0" d="M137.74,156.45h4.55l12.18,14.66v-14.96h5.45v24.39h-4.55l-12.18-14.66v14.96h-5.45V156.45z"/>
	<path class="st0" d="M177.66,176.11h-9.46l-1.71,4.73h-5.63l9.46-24.39h5.66l9.46,24.39h-6.07L177.66,176.11z M175.98,171.38
		l-3.05-8.5l-3.05,8.5H175.98z"/>
	<path class="st0" d="M214.94,156.45v24.39h-5.45v-9.9h-10.77v9.9h-5.45v-24.39h5.45v9.67h10.77v-9.67H214.94z"/>
	<path class="st0" d="M223.2,156.45v24.39h-5.45v-24.39H223.2z"/>
	<path class="st0" d="M240.52,180.84l-4.73-7.69h-4.34v7.69h-5.45v-24.39h9.81c6.19,0,9.81,3.29,9.81,8.35
		c0,3.35-1.59,5.92-4.46,7.27l5.66,8.77H240.52z M231.46,168.33h4.13c2.87,0,4.61-1.23,4.61-3.53c0-2.3-1.74-3.53-4.61-3.53h-4.13
		V168.33z"/>
	<path class="st0" d="M247.85,156.45h18.13v4.73H253.3v4.97h11.64v4.73H253.3v5.24h12.96v4.73h-18.4V156.45z"/>
	<path class="st0" d="M275.29,156.45h4.34l8.41,13.64l8.41-13.64h4.34v24.39h-5.45v-13.38l-5.66,9.37h-3.29l-5.66-9.37v13.38h-5.45
		V156.45z"/>
	<path class="st0" d="M303.6,156.45h18.13v4.73h-12.69v4.97h11.64v4.73h-11.64v5.24H322v4.73h-18.4V156.45z"/>
	<path class="st0" d="M331.93,166.5c1.76-1.35,2.72-2.24,2.72-3.68c0-1.5-1.08-2.42-2.96-2.42c-2,0-3.08,1.41-3.08,2.93h-5.21
		c0-4.31,3.41-7.54,8.26-7.54c5.18,0,8.11,2.96,8.11,7.03c0,2.21-1.08,3.98-3.02,5.48c-2.18,1.71-2.87,2.78-2.87,4.46h-4.94
		C328.94,169.8,329.75,168.15,331.93,166.5z M328.4,178.11c0-1.83,1.35-3.17,3.17-3.17s3.17,1.35,3.17,3.17s-1.35,3.14-3.17,3.14
		S328.4,179.94,328.4,178.11z"/>
</g>
<g>
	<path class="st0" d="M10.9,45.68h5.2l13.91,16.75V45.34h6.22V73.2h-5.2L17.12,56.45v17.09H10.9V45.68z"/>
	<path class="st0" d="M35.82,59.59c0-8.44,6.39-14.63,15.04-14.63S65.9,51.15,65.9,59.59s-6.39,14.63-15.04,14.63
		S35.82,68.04,35.82,59.59z M59.68,59.59c0-5.26-3.76-9.02-8.82-9.02s-8.82,3.76-8.82,9.02c0,5.23,3.76,9.02,8.82,9.02
		S59.68,64.82,59.68,59.59z"/>
	<path class="st0" d="M64.26,59.59c0-8.44,6.39-14.63,15.04-14.63s15.04,6.19,15.04,14.63S87.95,74.22,79.3,74.22
		S64.26,68.04,64.26,59.59z M88.12,59.59c0-5.26-3.76-9.02-8.82-9.02s-8.82,3.76-8.82,9.02c0,5.23,3.76,9.02,8.82,9.02
		S88.12,64.82,88.12,59.59z"/>
	<path class="st0" d="M93.93,45.68h12.1c6.19,0,9.67,3.21,9.67,8.31c0,1.98-1.33,4.24-3.25,4.96c2.67,0.85,4.55,3.45,4.55,6.15
		c0,5.16-3.69,8.44-9.95,8.44H93.93V45.68z M105.75,56.96c2.36,0,3.73-1.03,3.73-2.97s-1.37-3.01-3.73-3.01h-5.61v5.98H105.75z
		 M106.78,68.24c2.46,0,4-1.09,4-3.14c0-2.05-1.54-3.14-4-3.14h-6.63v6.29H106.78z"/>
	<path class="st0" d="M122.02,45.68h5.2l13.91,16.75V45.34h6.22V73.2h-5.2l-13.91-16.75v17.09h-6.22V45.68z"/>
	<path class="st0" d="M146.94,59.59c0-8.44,6.39-14.63,15.04-14.63s15.04,6.19,15.04,14.63s-6.39,14.63-15.04,14.63
		S146.94,68.04,146.94,59.59z M170.8,59.59c0-5.26-3.76-9.02-8.82-9.02s-8.82,3.76-8.82,9.02c0,5.23,3.76,9.02,8.82,9.02
		S170.8,64.82,170.8,59.59z"/>
	<path class="st0" d="M175.38,59.59c0-8.44,6.39-14.63,15.04-14.63s15.04,6.19,15.04,14.63s-6.39,14.63-15.04,14.63
		S175.38,68.04,175.38,59.59z M199.24,59.59c0-5.26-3.76-9.02-8.82-9.02s-8.82,3.76-8.82,9.02c0,5.23,3.76,9.02,8.82,9.02
		S199.24,64.82,199.24,59.59z"/>
	<path class="st0" d="M205.05,45.68h12.1c6.19,0,9.67,3.21,9.67,8.31c0,1.98-1.33,4.24-3.25,4.96c2.67,0.85,4.55,3.45,4.55,6.15
		c0,5.16-3.69,8.44-9.95,8.44h-13.12V45.68z M216.87,56.96c2.36,0,3.73-1.03,3.73-2.97s-1.37-3.01-3.73-3.01h-5.61v5.98H216.87z
		 M217.9,68.24c2.46,0,4-1.09,4-3.14c0-2.05-1.54-3.14-4-3.14h-6.63v6.29H217.9z"/>
	<path class="st0" d="M233.14,45.68h5.2l13.91,16.75V45.34h6.22V73.2h-5.2l-13.91-16.75v17.09h-6.22V45.68z"/>
	<path class="st0" d="M258.06,59.59c0-8.44,6.39-14.63,15.04-14.63s15.04,6.19,15.04,14.63s-6.39,14.63-15.04,14.63
		S258.06,68.04,258.06,59.59z M281.92,59.59c0-5.26-3.76-9.02-8.82-9.02s-8.82,3.76-8.82,9.02c0,5.23,3.76,9.02,8.82,9.02
		S281.92,64.82,281.92,59.59z"/>
	<path class="st0" d="M286.5,59.59c0-8.44,6.39-14.63,15.04-14.63s15.04,6.19,15.04,14.63s-6.39,14.63-15.04,14.63
		S286.5,68.04,286.5,59.59z M310.36,59.59c0-5.26-3.76-9.02-8.82-9.02s-8.82,3.76-8.82,9.02c0,5.23,3.76,9.02,8.82,9.02
		S310.36,64.82,310.36,59.59z"/>
	<path class="st0" d="M316.17,45.68h12.1c6.19,0,9.67,3.21,9.67,8.31c0,1.98-1.33,4.24-3.25,4.96c2.67,0.85,4.55,3.45,4.55,6.15
		c0,5.16-3.69,8.44-9.95,8.44h-13.12V45.68z M327.99,56.96c2.36,0,3.73-1.03,3.73-2.97s-1.37-3.01-3.73-3.01h-5.61v5.98H327.99z
		 M329.02,68.24c2.46,0,4-1.09,4-3.14c0-2.05-1.54-3.14-4-3.14h-6.63v6.29H329.02z"/>
</g>
<g>
	<path class="st0" d="M10.9,118.11h5.2l13.91,16.75v-17.09h6.22v27.86h-5.2l-13.91-16.75v17.09H10.9V118.11z"/>
	<path class="st0" d="M35.82,132.02c0-8.44,6.39-14.63,15.04-14.63s15.04,6.19,15.04,14.63s-6.39,14.63-15.04,14.63
		S35.82,140.46,35.82,132.02z M59.68,132.02c0-5.26-3.76-9.02-8.82-9.02s-8.82,3.76-8.82,9.02c0,5.23,3.76,9.02,8.82,9.02
		S59.68,137.25,59.68,132.02z"/>
	<path class="st0" d="M64.26,132.02c0-8.44,6.39-14.63,15.04-14.63s15.04,6.19,15.04,14.63s-6.39,14.63-15.04,14.63
		S64.26,140.46,64.26,132.02z M88.12,132.02c0-5.26-3.76-9.02-8.82-9.02s-8.82,3.76-8.82,9.02c0,5.23,3.76,9.02,8.82,9.02
		S88.12,137.25,88.12,132.02z"/>
	<path class="st0" d="M93.93,118.11h12.1c6.19,0,9.67,3.21,9.67,8.31c0,1.98-1.33,4.24-3.25,4.96c2.67,0.85,4.55,3.45,4.55,6.15
		c0,5.16-3.69,8.44-9.95,8.44H93.93V118.11z M105.75,129.39c2.36,0,3.73-1.03,3.73-2.97c0-1.95-1.37-3.01-3.73-3.01h-5.61v5.98
		H105.75z M106.78,140.67c2.46,0,4-1.09,4-3.14s-1.54-3.14-4-3.14h-6.63v6.29H106.78z"/>
	<path class="st0" d="M122.02,118.11h5.2l13.91,16.75v-17.09h6.22v27.86h-5.2l-13.91-16.75v17.09h-6.22V118.11z"/>
	<path class="st0" d="M146.94,132.02c0-8.44,6.39-14.63,15.04-14.63s15.04,6.19,15.04,14.63s-6.39,14.63-15.04,14.63
		S146.94,140.46,146.94,132.02z M170.8,132.02c0-5.26-3.76-9.02-8.82-9.02s-8.82,3.76-8.82,9.02c0,5.23,3.76,9.02,8.82,9.02
		S170.8,137.25,170.8,132.02z"/>
	<path class="st0" d="M175.38,132.02c0-8.44,6.39-14.63,15.04-14.63s15.04,6.19,15.04,14.63s-6.39,14.63-15.04,14.63
		S175.38,140.46,175.38,132.02z M199.24,132.02c0-5.26-3.76-9.02-8.82-9.02s-8.82,3.76-8.82,9.02c0,5.23,3.76,9.02,8.82,9.02
		S199.24,137.25,199.24,132.02z"/>
	<path class="st0" d="M205.05,118.11h12.1c6.19,0,9.67,3.21,9.67,8.31c0,1.98-1.33,4.24-3.25,4.96c2.67,0.85,4.55,3.45,4.55,6.15
		c0,5.16-3.69,8.44-9.95,8.44h-13.12V118.11z M216.87,129.39c2.36,0,3.73-1.03,3.73-2.97c0-1.95-1.37-3.01-3.73-3.01h-5.61v5.98
		H216.87z M217.9,140.67c2.46,0,4-1.09,4-3.14s-1.54-3.14-4-3.14h-6.63v6.29H217.9z"/>
	<path class="st0" d="M233.14,118.11h5.2l13.91,16.75v-17.09h6.22v27.86h-5.2l-13.91-16.75v17.09h-6.22V118.11z"/>
	<path class="st0" d="M258.06,132.02c0-8.44,6.39-14.63,15.04-14.63s15.04,6.19,15.04,14.63s-6.39,14.63-15.04,14.63
		S258.06,140.46,258.06,132.02z M281.92,132.02c0-5.26-3.76-9.02-8.82-9.02s-8.82,3.76-8.82,9.02c0,5.23,3.76,9.02,8.82,9.02
		S281.92,137.25,281.92,132.02z"/>
	<path class="st0" d="M286.5,132.02c0-8.44,6.39-14.63,15.04-14.63s15.04,6.19,15.04,14.63s-6.39,14.63-15.04,14.63
		S286.5,140.46,286.5,132.02z M310.36,132.02c0-5.26-3.76-9.02-8.82-9.02s-8.82,3.76-8.82,9.02c0,5.23,3.76,9.02,8.82,9.02
		S310.36,137.25,310.36,132.02z"/>
	<path class="st0" d="M316.17,118.11h12.1c6.19,0,9.67,3.21,9.67,8.31c0,1.98-1.33,4.24-3.25,4.96c2.67,0.85,4.55,3.45,4.55,6.15
		c0,5.16-3.69,8.44-9.95,8.44h-13.12V118.11z M327.99,129.39c2.36,0,3.73-1.03,3.73-2.97c0-1.95-1.37-3.01-3.73-3.01h-5.61v5.98
		H327.99z M329.02,140.67c2.46,0,4-1.09,4-3.14s-1.54-3.14-4-3.14h-6.63v6.29H329.02z"/>
</g>
<g>
	<path class="st1" d="M28.15,194.28h-7.08v17.46h-4.86v-17.46H9.14v-4.3h19.01V194.28z"/>
	<path class="st1" d="M49.43,189.98v21.76h-4.86v-8.84h-9.61v8.84H30.1v-21.76h4.86v8.62h9.61v-8.62H49.43z"/>
	<path class="st1" d="M57.46,189.98v21.76H52.6v-21.76H57.46z"/>
	<path class="st1" d="M77.84,196.55h-5.02c-0.29-1.9-1.71-3.04-4.03-3.04c-2.27,0-3.52,0.91-3.52,2.22c0,1.63,1.68,2.19,5.93,3.07
		c5.02,1.04,6.73,3.52,6.73,6.78c0,4.17-3.93,6.7-8.79,6.7c-5.37,0-9.29-2.91-9.51-7.56h4.99c0.27,2.08,2.08,3.47,4.86,3.47
		c1.98,0,3.44-0.99,3.44-2.4c0-1.74-1.47-2.43-5.34-3.15c-4.73-0.88-7.29-2.83-7.29-6.92c0-3.93,3.9-6.27,8.81-6.27
		C73.97,189.44,77.6,192.41,77.84,196.55z"/>
	<path class="st1" d="M86.91,189.98h4.06l10.87,13.08v-13.35h4.86v21.76h-4.06l-10.87-13.08v13.35h-4.86V189.98z"/>
	<path class="st1" d="M109.87,189.98h16.18v4.22h-11.32v4.43h10.39v4.22h-10.39v4.67h11.56v4.22h-16.42V189.98z"/>
	<path class="st1" d="M157.51,189.98l-6.27,21.76h-4.91l-3.9-13.65l-3.9,13.65h-4.91l-6.27-21.76h5.21l3.74,14.23l3.74-14.23h5.05
		l3.71,14.18l3.77-14.18H157.51z"/>
	<path class="st1" d="M165.94,189.98h8.36c5.66,0,8.97,3.15,8.97,7.96c0,4.86-3.31,8.01-8.97,8.01h-3.5v5.79h-4.86V189.98z
		 M174.09,201.65c2.7,0,4.33-1.28,4.33-3.71c0-2.4-1.63-3.66-4.33-3.66h-3.28v7.37H174.09z"/>
	<path class="st1" d="M184.26,200.84c0-6.6,4.99-11.43,11.75-11.43s11.75,4.83,11.75,11.43c0,6.6-4.99,11.43-11.75,11.43
		S184.26,207.44,184.26,200.84z M202.9,200.84c0-4.11-2.94-7.05-6.89-7.05s-6.89,2.94-6.89,7.05c0,4.09,2.94,7.05,6.89,7.05
		S202.9,204.93,202.9,200.84z"/>
	<path class="st1" d="M222.92,211.74l-4.22-6.86h-3.87v6.86h-4.86v-21.76h8.76c5.53,0,8.76,2.94,8.76,7.45
		c0,2.99-1.42,5.29-3.98,6.49l5.05,7.82H222.92z M214.83,200.58h3.69c2.56,0,4.11-1.09,4.11-3.15s-1.55-3.15-4.11-3.15h-3.69V200.58
		z"/>
	<path class="st1" d="M247.46,194.28h-7.08v17.46h-4.86v-17.46h-7.08v-4.3h19.01V194.28z"/>
	<path class="st1" d="M249.41,189.98h15.97v4.27h-11.11v4.94h9.88v4.22h-9.88v8.33h-4.86V189.98z"/>
	<path class="st1" d="M266.42,200.84c0-6.6,4.99-11.43,11.75-11.43s11.75,4.83,11.75,11.43c0,6.6-4.99,11.43-11.75,11.43
		S266.42,207.44,266.42,200.84z M285.05,200.84c0-4.11-2.94-7.05-6.89-7.05c-3.95,0-6.89,2.94-6.89,7.05c0,4.09,2.94,7.05,6.89,7.05
		C282.12,207.89,285.05,204.93,285.05,200.84z"/>
	<path class="st1" d="M296.99,189.98v17.46h10.87v4.3h-15.73v-21.76H296.99z"/>
	<path class="st1" d="M314.5,189.98v21.76h-4.86v-21.76H314.5z"/>
	<path class="st1" d="M316.72,200.84c0-6.6,4.99-11.43,11.75-11.43s11.75,4.83,11.75,11.43c0,6.6-4.99,11.43-11.75,11.43
		S316.72,207.44,316.72,200.84z M335.36,200.84c0-4.11-2.94-7.05-6.89-7.05s-6.89,2.94-6.89,7.05c0,4.09,2.94,7.05,6.89,7.05
		S335.36,204.93,335.36,200.84z"/>
</g>
</svg>
