<?xml version="1.0" encoding="utf-8"?>
<!-- Generator: Adobe Illustrator 25.4.1, SVG Export Plug-In . SVG Version: 6.00 Build 0)  -->
<svg version="1.1" id="레이어_1" xmlns="http://www.w3.org/2000/svg" xmlns:xlink="http://www.w3.org/1999/xlink" x="0px"
	 y="0px" viewBox="0 0 543.89 565.88" style="enable-background:new 0 0 543.89 565.88;" xml:space="preserve">
<style type="text/css">
	.st0{fill:#5A816E;}
	.st1{fill:#040000;}
</style>
<rect y="-24.53" class="st0" width="543.89" height="590.4"/>
<g>
	<path class="st1" d="M42.99,226.9h40.04v10.44H55.01v10.97h25.7v10.44h-25.7v11.56h28.61v10.44H42.99V226.9z"/>
	<path class="st1" d="M103.7,253.6L86.46,226.9h14.27l10.84,17.58l11.17-17.58h13.68l-17.31,26.3L137,280.76h-14.07l-11.56-18.57
		l-11.83,18.57H85.86L103.7,253.6z"/>
	<path class="st1" d="M185.56,237.54h-17.51v43.21h-12.03v-43.21h-17.51V226.9h47.04V237.54z"/>
	<path class="st1" d="M222.42,280.76l-10.44-16.98h-9.58v16.98h-12.03V226.9h21.67c13.68,0,21.67,7.27,21.67,18.43
		c0,7.4-3.5,13.08-9.85,16.06l12.49,19.36H222.42z M202.4,253.14h9.12c6.34,0,10.18-2.71,10.18-7.8s-3.83-7.8-10.18-7.8h-9.12
		V253.14z"/>
	<path class="st1" d="M237.29,253.8c0-16.32,12.36-28.28,29.07-28.28c16.72,0,29.07,11.96,29.07,28.28
		c0,16.32-12.36,28.28-29.07,28.28C249.64,282.08,237.29,270.12,237.29,253.8z M283.41,253.8c0-10.18-7.27-17.44-17.05-17.44
		s-17.05,7.27-17.05,17.44c0,10.11,7.27,17.44,17.05,17.44S283.41,263.91,283.41,253.8z"/>
	<path class="st1" d="M349.14,226.9l-21.28,53.85h-12.95l-21.28-53.85h13.61l14.67,39.64l14.6-39.64H349.14z"/>
	<path class="st1" d="M352.9,226.9h40.04v10.44h-28.01v10.97h25.7v10.44h-25.7v11.56h28.61v10.44H352.9V226.9z"/>
	<path class="st1" d="M431.98,280.76l-10.44-16.98h-9.58v16.98h-12.03V226.9h21.67c13.68,0,21.67,7.27,21.67,18.43
		c0,7.4-3.5,13.08-9.85,16.06l12.49,19.36H431.98z M411.96,253.14h9.12c6.34,0,10.18-2.71,10.18-7.8s-3.83-7.8-10.18-7.8h-9.12
		V253.14z"/>
	<path class="st1" d="M492.7,237.54h-17.51v43.21h-12.03v-43.21h-17.51V226.9h47.04V237.54z"/>
	<path class="st1" d="M42.99,306.18h20.68c14.01,0,22.2,7.8,22.2,19.69c0,12.03-8.19,19.82-22.2,19.82h-8.66v14.34H42.99V306.18z
		 M63.14,335.06c6.67,0,10.7-3.17,10.7-9.18c0-5.95-4.03-9.05-10.7-9.05h-8.13v18.24H63.14z"/>
	<path class="st1" d="M88.31,333.08c0-16.32,12.36-28.28,29.07-28.28c16.72,0,29.07,11.96,29.07,28.28
		c0,16.32-12.36,28.28-29.07,28.28C100.66,361.36,88.31,349.4,88.31,333.08z M134.43,333.08c0-10.18-7.27-17.44-17.05-17.44
		c-9.78,0-17.05,7.27-17.05,17.44c0,10.11,7.27,17.44,17.05,17.44C127.16,350.52,134.43,343.19,134.43,333.08z"/>
	<path class="st1" d="M194.48,322.44h-12.42c-0.73-4.69-4.23-7.53-9.98-7.53c-5.62,0-8.72,2.25-8.72,5.48
		c0,4.03,4.16,5.42,14.67,7.6c12.42,2.58,16.65,8.72,16.65,16.78c0,10.31-9.71,16.58-21.74,16.58c-13.28,0-22.99-7.2-23.52-18.7
		h12.36c0.66,5.15,5.15,8.59,12.03,8.59c4.89,0,8.52-2.44,8.52-5.95c0-4.29-3.63-6.01-13.21-7.8c-11.7-2.18-18.04-7-18.04-17.11
		c0-9.71,9.65-15.53,21.8-15.53C184.9,304.86,193.89,312.2,194.48,322.44z"/>
	<path class="st1" d="M212.12,306.18v53.85h-12.03v-53.85H212.12z"/>
	<path class="st1" d="M263.98,316.82h-17.51v43.21h-12.03v-43.21h-17.51v-10.64h47.04V316.82z"/>
	<path class="st1" d="M280.82,306.18v53.85H268.8v-53.85H280.82z"/>
	<path class="st1" d="M340.09,306.18l-21.28,53.85h-12.95l-21.28-53.85h13.61l14.67,39.64l14.6-39.64H340.09z"/>
	<path class="st1" d="M343.85,306.18h40.04v10.44h-28.01v10.97h25.7v10.44h-25.7v11.56h28.61v10.44h-40.64V306.18z"/>
	<path class="st1" d="M71.27,422.4v16.91H59.24V422.4l-20.15-36.94h13.74l12.95,25.44l12.89-25.44h12.75L71.27,422.4z"/>
	<path class="st1" d="M94.72,385.46h12.03v30c0,8.59,4.76,14.34,12.62,14.34c7.86,0,12.62-5.75,12.62-14.34v-30h12.03v30
		c0,15.26-9.85,25.17-24.65,25.17s-24.65-9.91-24.65-25.17V385.46z"/>
	<path class="st1" d="M151.2,385.46h10.04l26.89,32.38V384.8h12.03v53.85h-10.04l-26.89-32.38v33.04H151.2V385.46z"/>
	<path class="st1" d="M266.62,421.41c0,3.96,3.17,8.39,9.12,8.39c5.95,0,9.51-4.16,9.51-10.37v-33.96h12.03v33.96
		c0,12.88-8.59,21.21-21.54,21.21c-12.95,0-21.01-8.52-21.14-19.23H266.62z"/>
	<path class="st1" d="M316.37,385.46v53.85h-12.03v-53.85H316.37z"/>
	<path class="st1" d="M372.06,385.46v53.85h-12.03v-21.87h-23.79v21.87h-12.03v-53.85h12.03v21.34h23.79v-21.34H372.06z"/>
	<path class="st1" d="M450.75,385.46l-15.53,53.85h-12.16l-9.65-33.76l-9.65,33.76h-12.16l-15.53-53.85h12.88l9.25,35.22l9.25-35.22
		h12.49l9.18,35.09l9.32-35.09H450.75z"/>
	<path class="st1" d="M480.54,428.87h-20.88l-3.77,10.44h-12.42l20.88-53.85h12.49l20.88,53.85h-13.41L480.54,428.87z
		 M476.84,418.43l-6.74-18.76l-6.74,18.76H476.84z"/>
	<path class="st1" d="M61.69,518.59H49.73v-43.41h-9.51v-10.44h21.47V518.59z"/>
	<path class="st1" d="M89.89,500.36c-0.33,0.13-0.93,0.26-1.52,0.26c-10.51,0-19.16-7.33-19.16-18.24c0-11.5,9.18-18.9,20.42-18.9
		s20.42,7.33,20.42,18.83c0,5.22-1.72,9.25-4.89,14.27l-13.88,22H77.67L89.89,500.36z M98.35,482.25c0-4.82-3.37-8.59-8.72-8.59
		c-5.35,0-8.72,3.77-8.72,8.59c0,4.82,3.37,8.59,8.72,8.59C94.98,490.84,98.35,487.08,98.35,482.25z"/>
	<path class="st1" d="M132.44,500.36c-0.33,0.13-0.93,0.26-1.52,0.26c-10.51,0-19.16-7.33-19.16-18.24c0-11.5,9.18-18.9,20.42-18.9
		c11.23,0,20.42,7.33,20.42,18.83c0,5.22-1.72,9.25-4.89,14.27l-13.88,22h-13.61L132.44,500.36z M140.9,482.25
		c0-4.82-3.37-8.59-8.72-8.59c-5.35,0-8.72,3.77-8.72,8.59c0,4.82,3.37,8.59,8.72,8.59C137.53,490.84,140.9,487.08,140.9,482.25z"/>
	<path class="st1" d="M176.51,518.59h-11.96v-43.41h-9.51v-10.44h21.47V518.59z"/>
	<path class="st1" d="M197.71,512.51c0,3.77-2.77,6.61-6.54,6.61c-3.83,0-6.61-2.84-6.61-6.61s2.77-6.61,6.61-6.61
		C194.94,505.91,197.71,508.75,197.71,512.51z"/>
	<path class="st1" d="M241.06,491.63c0,18.83-8.85,28.28-20.62,28.28c-11.76,0-20.62-9.45-20.62-28.28
		c0-18.9,8.85-28.35,20.62-28.35C232.2,463.29,241.06,472.74,241.06,491.63z M211.19,491.63c0,12.22,3.96,17.77,9.25,17.77
		s9.25-5.55,9.25-17.77c0-12.29-3.96-17.84-9.25-17.84S211.19,479.34,211.19,491.63z"/>
	<path class="st1" d="M244.15,501.02c0-5.22,1.72-9.25,4.89-14.27l13.88-22h13.61l-12.22,18.24c0.33-0.13,0.92-0.26,1.52-0.26
		c10.51,0,19.16,7.33,19.16,18.24c0,11.03-9.12,18.9-20.42,18.9C253.34,519.85,244.15,512.51,244.15,501.02z M273.29,501.08
		c0-4.82-3.37-8.59-8.72-8.59c-5.35,0-8.72,3.77-8.72,8.59c0,4.82,3.37,8.59,8.72,8.59C269.92,509.67,273.29,505.91,273.29,501.08z"
		/>
	<path class="st1" d="M299.52,512.51c0,3.77-2.78,6.61-6.54,6.61c-3.83,0-6.61-2.84-6.61-6.61s2.78-6.61,6.61-6.61
		C296.74,505.91,299.52,508.75,299.52,512.51z"/>
	<path class="st1" d="M342.86,491.63c0,18.83-8.85,28.28-20.61,28.28c-11.76,0-20.61-9.45-20.61-28.28
		c0-18.9,8.85-28.35,20.61-28.35C334.01,463.29,342.86,472.74,342.86,491.63z M313,491.63c0,12.22,3.96,17.77,9.25,17.77
		c5.29,0,9.25-5.55,9.25-17.77c0-12.29-3.96-17.84-9.25-17.84C316.96,473.79,313,479.34,313,491.63z"/>
	<path class="st1" d="M384.35,480.2c0,5.62-2.71,10.44-12.16,20.22l-7.73,7.99h20.95v10.18h-38.52v-6.87l17.64-18.17
		c6.47-6.67,7.99-10.18,7.99-13.21c0-3.96-2.18-6.61-7.4-6.61c-4.89,0-7.53,3.96-7.53,8.06h-11.83c0-10.57,8-18.5,19.36-18.5
		C377.22,463.29,384.35,470.42,384.35,480.2z"/>
</g>
</svg>
