<?xml version="1.0" encoding="utf-8"?>
<!-- Generator: Adobe Illustrator 25.4.1, SVG Export Plug-In . SVG Version: 6.00 Build 0)  -->
<svg version="1.1" id="레이어_1" xmlns="http://www.w3.org/2000/svg" xmlns:xlink="http://www.w3.org/1999/xlink" x="0px"
	 y="0px" viewBox="0 0 150 145" style="enable-background:new 0 0 150 145;" xml:space="preserve">
<style type="text/css">
	.st0{fill:#231815;}
</style>
<g>
	<g>
		<g>
			<path class="st0" d="M70.23,50.97c-5.76,5.72-11.77,11.05-19.15,14.57c-2.9,1.38-0.37,5.7,2.52,4.32
				c7.74-3.69,14.13-9.35,20.17-15.35C76.05,52.24,72.52,48.7,70.23,50.97L70.23,50.97z"/>
		</g>
	</g>
	<g>
		<g>
			<path class="st0" d="M85.03,75.75c3.22,0,3.22-5,0-5C81.82,70.75,81.81,75.75,85.03,75.75L85.03,75.75z"/>
		</g>
	</g>
	<g>
		<g>
			<path class="st0" d="M62.6,78.53c3.22,0,3.22-5,0-5C59.38,73.53,59.37,78.53,62.6,78.53L62.6,78.53z"/>
		</g>
	</g>
	<g>
		<g>
			<path class="st0" d="M80.57,50.02c6.71-1.84,12.97,8.45,15.56,13.28c3.09,5.76,5.04,12.04,6.79,18.31
				c0.87,3.09,5.69,1.78,4.82-1.33c-2.42-8.63-5.29-17.44-10.57-24.79C93.1,49.83,86.88,43.11,79.24,45.2
				C76.14,46.05,77.46,50.87,80.57,50.02L80.57,50.02z"/>
		</g>
	</g>
	<g>
		<g>
			<path class="st0" d="M68.09,90.59c1.36,6.21,11.08,6.63,14.86,2.6c2.2-2.34-1.33-5.89-3.54-3.54c-1.27,1.35-5.98,1.98-6.51-0.39
				C72.22,86.12,67.4,87.45,68.09,90.59L68.09,90.59z"/>
		</g>
	</g>
	<g>
		<g>
			<path class="st0" d="M99.08,92.86c-6.83,6.42-16.33,11.63-25.97,11.03c-10.18-0.63-16.59-8.86-19.21-18.05
				c-0.88-3.09-5.71-1.78-4.82,1.33c2.97,10.43,10.23,19.79,21.51,21.47c11.77,1.75,23.68-4.39,32.03-12.24
				C104.96,94.18,101.42,90.65,99.08,92.86L99.08,92.86z"/>
		</g>
	</g>
	<g>
		<g>
			<path class="st0" d="M75.05,40.29c-7.95-8.75-20.38-9.38-28.56-0.71c-8.81,9.34-11.72,22.51-12.25,34.96
				c-0.14,3.22,4.86,3.21,5,0c0.41-9.44,2.2-19.27,7.51-27.28c2.65-4,6.34-8.16,11.3-8.91c5.21-0.79,10.03,1.69,13.46,5.48
				C73.68,46.21,77.21,42.67,75.05,40.29L75.05,40.29z"/>
		</g>
	</g>
	<g>
		<g>
			<path class="st0" d="M83.13,42.11c25.81-10.24,32.04,30.8,30.17,48.02c-0.35,3.19,4.66,3.17,5,0
				c2.23-20.56-6.91-64.58-36.5-52.84C78.85,38.47,80.14,43.3,83.13,42.11L83.13,42.11z"/>
		</g>
	</g>
	<g>
		<g>
			<path class="st0" d="M57.47,26.09c-17.07-0.14-27.04,15.63-30.98,30.47c-6.26,23.55-2.17,48.7-2.07,72.68
				c0.01,3.22,5.01,3.22,5,0c-0.09-22.18-3.34-44.79,0.87-66.78c2.66-13.92,10.71-31.5,27.19-31.37
				C60.69,31.12,60.69,26.12,57.47,26.09L57.47,26.09z"/>
		</g>
	</g>
	<g>
		<g>
			<path class="st0" d="M73.55,29c-2.29-7.76-9.57-13.33-17.49-14.43c-9.18-1.28-16,5.13-19.38,13.15
				c-1.25,2.96,3.59,4.25,4.82,1.33c2.68-6.36,8.32-10.97,15.39-9.25c5.37,1.31,10.25,5.12,11.85,10.53
				C69.64,33.4,74.47,32.09,73.55,29L73.55,29z"/>
		</g>
	</g>
	<g>
		<g>
			<path class="st0" d="M72.19,20.28c6.49-3.78,14.65-3.82,21.58-1.24c3.02,1.12,4.32-3.71,1.33-4.82
				c-8.14-3.03-17.86-2.66-25.43,1.75C66.89,17.58,69.4,21.9,72.19,20.28L72.19,20.28z"/>
		</g>
	</g>
	<g>
		<g>
			<path class="st0" d="M75.7,107.45c0.1,6.2,1.3,12.26,3.08,18.19c0.92,3.07,5.75,1.76,4.82-1.33c-1.65-5.51-2.81-11.09-2.9-16.86
				C80.65,104.23,75.65,104.22,75.7,107.45L75.7,107.45z"/>
		</g>
	</g>
	<g>
		<g>
			<path class="st0" d="M87.88,104.88c0.1,4.11,1.23,7.95,2.65,11.78c1.11,2.99,5.94,1.7,4.82-1.33c-1.26-3.39-2.39-6.8-2.48-10.45
				C92.8,101.67,87.8,101.66,87.88,104.88L87.88,104.88z"/>
		</g>
	</g>
	<g>
		<g>
			<path class="st0" d="M113.07,34.32c12.34,31.43,9.58,64.37-1.67,95.67c-1.09,3.03,3.74,4.34,4.82,1.33
				c11.51-32.04,14.3-66.17,1.67-98.33C116.73,30.03,111.89,31.32,113.07,34.32L113.07,34.32z"/>
		</g>
	</g>
	<g>
		<g>
			<path class="st0" d="M102.31,97.16c7.79-0.75,14.5-9.6,7.43-15.93c-2.39-2.14-5.94,1.38-3.54,3.54c1.51,1.36,2.15,2.88,0.87,4.66
				c-1.08,1.51-2.93,2.56-4.77,2.74C99.14,92.46,99.11,97.47,102.31,97.16L102.31,97.16z"/>
		</g>
	</g>
</g>
</svg>
