<?xml version="1.0" encoding="utf-8"?>
<!-- Generator: Adobe Illustrator 25.4.1, SVG Export Plug-In . SVG Version: 6.00 Build 0)  -->
<svg version="1.1" id="레이어_1" xmlns="http://www.w3.org/2000/svg" xmlns:xlink="http://www.w3.org/1999/xlink" x="0px" fill="white"
	 y="0px" viewBox="0 0 475 475" style="enable-background:new 0 0 475 475;" xml:space="preserve" >
<g>
	<path d="M469.72,237.08c0.57,2.52-1.52,1.68-2.5,1.79c-42.99,4.78-85.99,9.49-128.98,14.26c-20.15,2.23-40.3,4.55-61.17,6.91
		c21.3,26.65,42.21,52.8,63.12,78.96c-0.38,0.41-0.76,0.82-1.14,1.23c-26.18-20.91-52.35-41.82-79.05-63.16
		c-2.05,18.4-4.03,36.06-6,53.73c-3.54,31.74-7.08,63.49-10.61,95.23c-1.49,13.39-2.91,26.79-4.47,40.18
		c-0.15,1.24,1.03,3.55-1.84,3.5c-1.85-17.7-3.62-35.41-5.55-53.1c-3.12-28.62-6.35-57.23-9.53-85.85
		c-1.97-17.65-3.95-35.29-6-53.69c-26.56,21.22-52.55,41.97-78.53,62.73c-0.41-0.45-0.82-0.91-1.23-1.36
		c20.75-25.95,41.5-51.91,62.72-78.45c-64.73-7.2-128.73-14.31-192.72-21.43c0-0.37,0-0.75,0.01-1.12
		c63.99-7.12,127.98-14.23,192.72-21.43c-21.25-26.57-42.01-52.53-62.77-78.49c0.32-0.41,0.65-0.82,0.97-1.23
		c13.33,9.82,25.98,20.54,38.97,30.81c13.16,10.4,26.2,20.93,39.87,31.86c7.2-64.72,14.31-128.69,21.42-192.66
		c0.37-0.03,0.75-0.07,1.12-0.1c7.12,64.01,14.24,128.01,21.45,192.75c14.64-11.7,28.65-22.9,42.66-34.11
		c11.18-8.94,22.35-17.9,33.58-26.78c0.75-0.59,1.42-2.36,2.7-1.28c1.75,1.49-0.46,2.27-1.07,3.04
		c-19.27,24.23-38.63,48.4-57.94,72.6c-0.8,1-2.02,1.78-2.15,3.64c14.69,1.64,29.38,3.29,44.06,4.92
		c31.59,3.52,63.18,7.07,94.78,10.53C434.31,233.47,452.02,235.24,469.72,237.08z"/>
</g>
</svg>
